<?xml version="1.0" encoding="utf-8"?>
<!-- Generator: Adobe Illustrator 19.2.0, SVG Export Plug-In . SVG Version: 6.00 Build 0)  -->
<svg version="1.1" id="Layer_1" xmlns="http://www.w3.org/2000/svg" xmlns:xlink="http://www.w3.org/1999/xlink" x="0px" y="0px"
   viewBox="0 0 235.4 176" style="enable-background:new 0 0 235.4 176;" xml:space="preserve">
<style type="text/css">
  .st0{display:none;}
  .st1{fill:#3fa208;}
</style>
<image style="display:none;overflow:visible;enable-background:new    ;" width="1200" height="800" xlink:href="ED801405C01F98A9.jpeg"  transform="matrix(0.3738 0 0 0.3738 -98.6792 -64.8279)">
</image>
<g class="st0">
  
    <image style="display:inline;overflow:visible;enable-background:new    ;" width="187" height="59" xlink:href="ED801405C01F98AB.png"  transform="matrix(3.9844 0 0 3.9551 -12.72 -19.1467)">
  </image>
</g>
<g>
  <path class="st1" d="M125.1,51.9c16.2-1.3,26.8,2,41.5,3.7c14.3,1.7,25.6-3.6,35.1-11.8c-1.7-0.6-3.4-1.3-5.2-2.1
    c-28-13.6-54.9-24.4-80.7-8.3c-9.8,6.1-15.1,11.8-24.4,26.9c0,0,3.3-0.7,8.3-2.6C107.1,54.8,115.4,52.7,125.1,51.9z"/>
  <path class="st1" d="M209.1,45.5c2-5.8,3.6-11.6,4.5-17.6c0.8-4.8-1.6,4.2-5.6,12.6C194.7,70.2,180.4,81,149.2,86
    c-27.1,4.4-48.6-10.4-58.1-18.5C72,72.7,56.8,83.9,46.6,97.2c-12.5,16.3-16.7,35.3-13.4,53.3c-6.2-19.8-3-41.7,11.1-60.2
    c10.1-13.2,24.3-22.7,40.2-28c0-0.2,0.1-0.4,0.1-0.5c-0.1,0-0.1,0.1-0.1,0.1c2-6.1,3.4-9.6,5-12.5c0.5-1.1,0.8-1.7,0.8-1.7l0.4-0.3
    c1.7-2.6,3.8-5,7.1-9c12.7-15.2,27.6-20.7,42.8-20.9C126,6.5,107.8,0,88,0C39.4,0,0,39.4,0,88s39.4,88,88,88
    c43.5,0,79.6-31.6,86.7-73.1c-7,2.8-14.5,4.9-22.5,6.1c-8.7,1.3-16.6,0.7-23.7-1c2.7,0,5.5-0.2,8.4-0.6c15.2-2.2,28.3-7.9,39.1-16
    c0-0.1,0-0.3,0-0.4c11.1-8,19.9-18.4,26.3-30.1c12.9-2.9,24-9.4,31.9-22.5C239.2,30,227.8,46.1,209.1,45.5z"/>
</g>
</svg>
