<?xml version="1.0" encoding="utf-8"?>
<!-- Generator: Adobe Illustrator 19.2.0, SVG Export Plug-In . SVG Version: 6.00 Build 0)  -->
<svg version="1.1" id="Layer_1" xmlns="http://www.w3.org/2000/svg" xmlns:xlink="http://www.w3.org/1999/xlink" x="0px" y="0px"
	 viewBox="0 0 756.8 589" style="enable-background:new 0 0 756.8 589;" xml:space="preserve">
<style type="text/css">
	.st0{fill:#339966;}
	.st1{fill:#FFFFFF;}
	.st2{fill:#333333;}
	.st3{fill:#CCCCCC;}
	.st4{fill:#FFFFFF;stroke:#CCCCCC;stroke-width:1.0518;stroke-miterlimit:10;}
	.st5{fill:#666666;}
	.st6{fill:#999999;}
	.st7{fill:#4497FE;}
	.st8{fill:#FD5116;}
	.st9{fill:#FDC601;}
	.st10{fill:#41BB47;}
	.st11{fill:none;stroke:#FFFFFF;stroke-width:5;stroke-miterlimit:10;stroke-dasharray:5,6;}
</style>
<rect x="0" class="st0" width="756.8" height="589"/>
<g>
	<path class="st1" d="M102.4,32.8v11.3h10.9V32.8h6.6v29.3h-6.6V49.9h-10.9v12.3h-6.6V32.8H102.4z"/>
	<path class="st1" d="M146.3,51.3c0,7.8-5.5,11.3-11.2,11.3c-6.2,0-11-4.1-11-10.9c0-6.9,4.5-11.3,11.3-11.3
		C141.9,40.4,146.3,44.9,146.3,51.3z M130.9,51.5c0,3.6,1.5,6.4,4.3,6.4c2.6,0,4.2-2.6,4.2-6.4c0-3.2-1.2-6.4-4.2-6.4
		C132.1,45.1,130.9,48.4,130.9,51.5z"/>
	<path class="st1" d="M154.5,40.9l1.7,8.7c0.4,2.2,0.9,4.6,1.2,7h0.1c0.4-2.4,1-4.9,1.6-7l2.3-8.7h5.2l2.1,8.5
		c0.6,2.4,1.1,4.8,1.6,7.2h0.1c0.3-2.4,0.7-4.8,1.2-7.3l1.8-8.4h6.5l-6.5,21.2h-6.2l-2-7.5c-0.5-2.1-0.9-4-1.3-6.6h-0.1
		c-0.4,2.6-0.8,4.6-1.4,6.6l-2.1,7.5H154l-6.2-21.2H154.5z"/>
	<path class="st1" d="M209.4,57c0,2,0.1,4,0.3,5.2h-6l-0.4-2.1h-0.1c-1.4,1.7-3.6,2.6-6.1,2.6c-4.3,0-6.9-3.1-6.9-6.5
		c0-5.5,5-8.2,12.5-8.1v-0.3c0-1.1-0.6-2.7-3.9-2.7c-2.2,0-4.5,0.7-5.9,1.6l-1.2-4.3c1.5-0.8,4.4-1.9,8.3-1.9c7.1,0,9.3,4.2,9.3,9.2
		V57z M203,52.1c-3.5,0-6.2,0.8-6.2,3.3c0,1.7,1.1,2.5,2.6,2.5c1.7,0,3-1.1,3.4-2.4c0.1-0.3,0.1-0.7,0.1-1.1V52.1z"/>
	<path class="st1" d="M223.4,31.3h6.6v12.1h0.1c0.7-0.9,1.6-1.7,2.6-2.2c1-0.5,2.2-0.8,3.4-0.8c4.2,0,7.4,2.9,7.4,9.3v12.4H237V50.4
		c0-2.8-1-4.7-3.4-4.7c-1.7,0-2.8,1.1-3.3,2.3c-0.2,0.4-0.2,1-0.2,1.5v12.6h-6.6V31.3z"/>
	<path class="st1" d="M269.9,51.3c0,7.8-5.5,11.3-11.2,11.3c-6.2,0-11-4.1-11-10.9c0-6.9,4.5-11.3,11.3-11.3
		C265.5,40.4,269.9,44.9,269.9,51.3z M254.5,51.5c0,3.6,1.5,6.4,4.3,6.4c2.6,0,4.2-2.6,4.2-6.4c0-3.2-1.2-6.4-4.2-6.4
		C255.7,45.1,254.5,48.4,254.5,51.5z"/>
	<path class="st1" d="M273.9,56.3c1.2,0.7,3.7,1.6,5.7,1.6c2,0,2.8-0.7,2.8-1.8s-0.7-1.6-3.1-2.4c-4.4-1.5-6.1-3.9-6-6.3
		c0-4,3.4-7,8.6-7c2.5,0,4.7,0.6,6,1.2l-1.2,4.6c-1-0.5-2.8-1.2-4.6-1.2c-1.6,0-2.5,0.7-2.5,1.7c0,1,0.8,1.5,3.4,2.4
		c4,1.4,5.7,3.4,5.8,6.6c0,4-3.1,6.9-9.2,6.9c-2.8,0-5.3-0.7-6.9-1.5L273.9,56.3z"/>
	<path class="st1" d="M300.2,35.1v5.8h4.7v4.9h-4.7v7.7c0,2.6,0.6,3.7,2.6,3.7c0.9,0,1.3,0,2-0.2l0,5c-0.9,0.3-2.4,0.6-4.3,0.6
		c-2.1,0-3.9-0.8-5-1.9c-1.2-1.3-1.8-3.3-1.8-6.3v-8.7h-2.8v-4.9h2.8v-4L300.2,35.1z"/>
	<path class="st1" d="M308.7,56.3c1.2,0.7,3.7,1.6,5.7,1.6c2,0,2.8-0.7,2.8-1.8s-0.7-1.6-3.1-2.4c-4.4-1.5-6.1-3.9-6-6.3
		c0-4,3.4-7,8.6-7c2.5,0,4.7,0.6,6,1.2l-1.2,4.6c-1-0.5-2.8-1.2-4.6-1.2c-1.6,0-2.5,0.7-2.5,1.7c0,1,0.8,1.5,3.4,2.4
		c4,1.4,5.7,3.4,5.8,6.6c0,4-3.1,6.9-9.2,6.9c-2.8,0-5.3-0.7-6.9-1.5L308.7,56.3z"/>
	<path class="st1" d="M337.1,62.1V45.7h-2.8v-4.9h2.8V40c0-5.9,4.6-9.2,11.1-9.2c2.3,0,5,0.5,6.3,1.3l-1.3,5c-1-0.6-2.7-1.1-4.8-1.1
		c-3.5,0-4.7,1.8-4.7,4.1v0.7h12.9v21.2H350V45.7h-6.3v16.4H337.1z"/>
	<path class="st1" d="M361.9,31.3h6.6v30.8h-6.6V31.3z"/>
	<path class="st1" d="M378.9,53.6c0.2,2.7,2.9,4,6,4c2.3,0,4.1-0.3,5.9-0.9l0.9,4.5c-2.2,0.9-4.8,1.3-7.7,1.3
		c-7.2,0-11.3-4.2-11.3-10.9c0-5.4,3.3-11.3,10.7-11.3c6.9,0,9.5,5.3,9.5,10.6c0,1.1-0.1,2.1-0.2,2.6H378.9z M386.7,49.1
		c0-1.6-0.7-4.3-3.7-4.3c-2.8,0-3.9,2.5-4.1,4.3H386.7z"/>
	<path class="st1" d="M410.1,40.9l1.7,8.7c0.4,2.2,0.9,4.6,1.2,7h0.1c0.4-2.4,1-4.9,1.6-7l2.3-8.7h5.2l2.1,8.5
		c0.6,2.4,1.1,4.8,1.6,7.2h0.1c0.3-2.4,0.7-4.8,1.2-7.3l1.8-8.4h6.5l-6.5,21.2h-6.2l-2-7.5c-0.5-2.1-0.9-4-1.3-6.6h-0.1
		c-0.4,2.6-0.8,4.6-1.4,6.6l-2.1,7.5h-6.2l-6.2-21.2H410.1z"/>
	<path class="st1" d="M458.8,51.3c0,7.8-5.5,11.3-11.2,11.3c-6.2,0-11-4.1-11-10.9c0-6.9,4.5-11.3,11.3-11.3
		C454.5,40.4,458.8,44.9,458.8,51.3z M443.5,51.5c0,3.6,1.5,6.4,4.3,6.4c2.6,0,4.2-2.6,4.2-6.4c0-3.2-1.2-6.4-4.2-6.4
		C444.6,45.1,443.5,48.4,443.5,51.5z"/>
	<path class="st1" d="M462.9,47.9c0-3.1-0.1-5.2-0.2-7h5.7l0.2,3.9h0.2c1.1-3.1,3.7-4.4,5.7-4.4c0.6,0,0.9,0,1.4,0.1v6.3
		c-0.5-0.1-1-0.2-1.8-0.2c-2.4,0-4.1,1.3-4.5,3.3c-0.1,0.4-0.1,1-0.1,1.5v10.8h-6.6V47.9z"/>
	<path class="st1" d="M485.9,49.8L485.9,49.8c0.6-0.9,1.1-1.7,1.6-2.6l4.3-6.4h8l-7.6,8.6l8.7,12.6h-8.1l-5.1-8.7l-1.7,2.1v6.6h-6.6
		V31.3h6.6V49.8z"/>
	<path class="st1" d="M502.8,56.3c1.2,0.7,3.7,1.6,5.7,1.6c2,0,2.8-0.7,2.8-1.8s-0.7-1.6-3.1-2.4c-4.4-1.5-6.1-3.9-6-6.3
		c0-4,3.4-7,8.6-7c2.5,0,4.7,0.6,6,1.2l-1.2,4.6c-1-0.5-2.8-1.2-4.6-1.2c-1.6,0-2.5,0.7-2.5,1.7c0,1,0.8,1.5,3.4,2.4
		c4,1.4,5.7,3.4,5.8,6.6c0,4-3.1,6.9-9.2,6.9c-2.8,0-5.3-0.7-6.9-1.5L502.8,56.3z"/>
</g>
<g>
	<g>
		<path class="st2" d="M295.1,397.7H97.4c-5.9,0-10.8-4.9-10.8-10.8V262.4c0-5.9,4.9-10.8,10.8-10.8h197.7c5.9,0,10.8,4.9,10.8,10.8
			v124.6C305.9,392.9,301.1,397.7,295.1,397.7z"/>
		<path class="st3" d="M286.2,389.1H106.4c-5.9,0-10.8-4.9-10.8-10.8V271c0-5.9,4.9-10.8,10.8-10.8h179.8c5.9,0,10.8,4.9,10.8,10.8
			v107.4C297,384.3,292.2,389.1,286.2,389.1z"/>
		<path class="st3" d="M61,397.6v0.1c0,3.6,6.5,6.5,14.4,6.5h241.7c7.9,0,14.4-2.9,14.4-6.5v-0.1H61z"/>
	</g>
	<rect x="103.7" y="299.4" class="st4" width="182.5" height="51.2"/>
	<g>
		<path class="st5" d="M143.9,322.6l1.2,4.4c0.3,1,0.5,1.9,0.6,2.8h0.1c0.2-0.9,0.5-1.8,0.8-2.8l1.4-4.4h1.3l1.4,4.4
			c0.3,1,0.6,2,0.8,2.8h0.1c0.1-0.9,0.4-1.8,0.7-2.8l1.2-4.4h1.6l-2.8,8.7h-1.4l-1.3-4.2c-0.3-1-0.6-1.8-0.8-2.9h0
			c-0.2,1-0.5,1.9-0.8,2.9l-1.4,4.1h-1.4l-2.6-8.7H143.9z"/>
		<path class="st5" d="M157.4,322.6l1.2,4.4c0.3,1,0.5,1.9,0.6,2.8h0.1c0.2-0.9,0.5-1.8,0.8-2.8l1.4-4.4h1.3l1.4,4.4
			c0.3,1,0.6,2,0.8,2.8h0.1c0.1-0.9,0.4-1.8,0.7-2.8l1.2-4.4h1.6l-2.8,8.7h-1.4l-1.3-4.2c-0.3-1-0.6-1.8-0.8-2.9h0
			c-0.2,1-0.5,1.9-0.8,2.9l-1.4,4.1h-1.4l-2.6-8.7H157.4z"/>
		<path class="st5" d="M170.9,322.6l1.2,4.4c0.3,1,0.5,1.9,0.6,2.8h0.1c0.2-0.9,0.5-1.8,0.8-2.8l1.4-4.4h1.3l1.4,4.4
			c0.3,1,0.6,2,0.8,2.8h0.1c0.1-0.9,0.4-1.8,0.7-2.8l1.2-4.4h1.6l-2.8,8.7h-1.4l-1.3-4.2c-0.3-1-0.6-1.8-0.8-2.9h0
			c-0.2,1-0.5,1.9-0.8,2.9l-1.4,4.1h-1.4l-2.6-8.7H170.9z"/>
		<path class="st5" d="M183.4,331.5c-0.6,0-1-0.5-1-1.1c0-0.7,0.4-1.1,1.1-1.1s1.1,0.5,1.1,1.1C184.5,331,184.1,331.5,183.4,331.5
			L183.4,331.5z"/>
		<path class="st5" d="M193.9,330c0,2-0.4,3.2-1.2,4c-0.8,0.8-2.1,1-3.2,1c-1,0-2.2-0.3-2.9-0.7l0.4-1.2c0.6,0.4,1.5,0.7,2.6,0.7
			c1.6,0,2.8-0.8,2.8-3v-1h0c-0.5,0.8-1.4,1.5-2.8,1.5c-2.2,0-3.7-1.8-3.7-4.2c0-3,1.9-4.6,3.9-4.6c1.5,0,2.3,0.8,2.7,1.5h0l0.1-1.3
			h1.4c0,0.6-0.1,1.3-0.1,2.4V330z M192.4,326c0-0.3,0-0.5-0.1-0.7c-0.3-0.9-1.1-1.7-2.2-1.7c-1.5,0-2.6,1.3-2.6,3.3
			c0,1.7,0.9,3.1,2.6,3.1c1,0,1.9-0.6,2.2-1.6c0.1-0.3,0.1-0.6,0.1-0.8V326z"/>
		<path class="st5" d="M204.4,326.9c0,3.2-2.2,4.6-4.3,4.6c-2.4,0-4.2-1.7-4.2-4.5c0-2.9,1.9-4.6,4.3-4.6
			C202.8,322.4,204.4,324.2,204.4,326.9z M197.5,326.9c0,1.9,1.1,3.3,2.6,3.3c1.5,0,2.6-1.4,2.6-3.4c0-1.5-0.7-3.3-2.6-3.3
			C198.3,323.6,197.5,325.3,197.5,326.9z"/>
		<path class="st5" d="M214.3,326.9c0,3.2-2.2,4.6-4.3,4.6c-2.4,0-4.2-1.7-4.2-4.5c0-2.9,1.9-4.6,4.3-4.6
			C212.6,322.4,214.3,324.2,214.3,326.9z M207.4,326.9c0,1.9,1.1,3.3,2.6,3.3c1.5,0,2.6-1.4,2.6-3.4c0-1.5-0.7-3.3-2.6-3.3
			C208.2,323.6,207.4,325.3,207.4,326.9z"/>
		<path class="st5" d="M223.8,330c0,2-0.4,3.2-1.2,4c-0.8,0.8-2.1,1-3.2,1c-1,0-2.2-0.3-2.9-0.7l0.4-1.2c0.6,0.4,1.5,0.7,2.6,0.7
			c1.6,0,2.8-0.8,2.8-3v-1h0c-0.5,0.8-1.4,1.5-2.8,1.5c-2.2,0-3.7-1.8-3.7-4.2c0-3,1.9-4.6,3.9-4.6c1.5,0,2.3,0.8,2.7,1.5h0l0.1-1.3
			h1.4c0,0.6-0.1,1.3-0.1,2.4V330z M222.2,326c0-0.3,0-0.5-0.1-0.7c-0.3-0.9-1.1-1.7-2.2-1.7c-1.5,0-2.6,1.3-2.6,3.3
			c0,1.7,0.9,3.1,2.6,3.1c1,0,1.9-0.6,2.2-1.6c0.1-0.3,0.1-0.6,0.1-0.8V326z"/>
		<path class="st5" d="M226.4,318.5h1.6v12.8h-1.6V318.5z"/>
		<path class="st5" d="M231.5,327.2c0,2.1,1.4,3,3,3c1.1,0,1.8-0.2,2.4-0.5l0.3,1.1c-0.6,0.3-1.5,0.6-2.9,0.6
			c-2.7,0-4.3-1.8-4.3-4.4s1.5-4.7,4.1-4.7c2.8,0,3.6,2.5,3.6,4.1c0,0.3,0,0.6-0.1,0.7H231.5z M236.2,326.1c0-1-0.4-2.6-2.2-2.6
			c-1.6,0-2.3,1.5-2.4,2.6H236.2z"/>
		<path class="st5" d="M240.1,331.5c-0.6,0-1-0.5-1-1.1c0-0.7,0.5-1.1,1.1-1.1s1.1,0.5,1.1,1.1C241.2,331,240.8,331.5,240.1,331.5
			L240.1,331.5z"/>
		<path class="st5" d="M249.4,331c-0.4,0.2-1.3,0.5-2.5,0.5c-2.6,0-4.3-1.8-4.3-4.5c0-2.7,1.8-4.6,4.7-4.6c0.9,0,1.8,0.2,2.2,0.5
			l-0.4,1.2c-0.4-0.2-1-0.4-1.8-0.4c-2,0-3.1,1.5-3.1,3.3c0,2,1.3,3.3,3,3.3c0.9,0,1.5-0.2,1.9-0.4L249.4,331z"/>
		<path class="st5" d="M259,326.9c0,3.2-2.2,4.6-4.3,4.6c-2.4,0-4.2-1.7-4.2-4.5c0-2.9,1.9-4.6,4.3-4.6
			C257.3,322.4,259,324.2,259,326.9z M252.1,326.9c0,1.9,1.1,3.3,2.6,3.3c1.5,0,2.6-1.4,2.6-3.4c0-1.5-0.7-3.3-2.6-3.3
			C252.9,323.6,252.1,325.3,252.1,326.9z"/>
		<path class="st5" d="M261,324.9c0-0.9,0-1.6-0.1-2.4h1.4l0.1,1.4h0.1c0.5-0.8,1.3-1.6,2.7-1.6c1.2,0,2.1,0.7,2.5,1.7h0
			c0.3-0.5,0.6-0.9,1-1.1c0.5-0.4,1.1-0.6,1.9-0.6c1.2,0,2.9,0.8,2.9,3.8v5.1h-1.5v-4.9c0-1.7-0.6-2.7-1.9-2.7
			c-0.9,0-1.6,0.7-1.9,1.4c-0.1,0.2-0.1,0.5-0.1,0.8v5.4h-1.5v-5.2c0-1.4-0.6-2.4-1.8-2.4c-1,0-1.7,0.8-2,1.6
			c-0.1,0.2-0.1,0.5-0.1,0.8v5.3H261V324.9z"/>
	</g>
	<path class="st5" d="M134.5,333.8l-6.7-6.7c0,0,0,0,0,0c0.8-1.2,1.3-2.7,1.3-4.3c0-4.1-3.4-7.5-7.5-7.5c-4.1,0-7.5,3.4-7.5,7.5
		c0,4.1,3.4,7.5,7.5,7.5c1.6,0,3-0.5,4.3-1.3c0,0,0,0,0,0l6.7,6.7c0.5,0.5,1.4,0.5,1.9,0l0,0C135,335.2,135,334.3,134.5,333.8z
		 M115.9,322.8c0-3.1,2.5-5.6,5.6-5.6c3.1,0,5.6,2.5,5.6,5.6c0,3.1-2.5,5.6-5.6,5.6C118.4,328.4,115.9,325.9,115.9,322.8z"/>
	<g>
		<path class="st1" d="M179.9,123.7c0.6-0.1,1.4-0.2,2.2-0.2c1.5,0,2.6,0.3,3.3,1c0.7,0.7,1.1,1.6,1.1,2.9c0,1.3-0.4,2.4-1.2,3.1
			c-0.8,0.8-2,1.2-3.6,1.2c-0.7,0-1.4,0-1.9-0.1V123.7z M181,130.8c0.3,0,0.6,0.1,1.1,0.1c2.2,0,3.4-1.2,3.4-3.4
			c0-1.9-1.1-3.1-3.3-3.1c-0.5,0-0.9,0-1.2,0.1V130.8z"/>
		<path class="st1" d="M193.2,128.7c0,2.1-1.5,3.1-2.9,3.1c-1.6,0-2.8-1.2-2.8-3c0-1.9,1.3-3.1,2.9-3.1
			C192.1,125.7,193.2,126.9,193.2,128.7z M188.6,128.7c0,1.3,0.7,2.2,1.8,2.2c1,0,1.8-0.9,1.8-2.3c0-1-0.5-2.2-1.7-2.2
			C189.1,126.5,188.6,127.6,188.6,128.7z"/>
		<path class="st1" d="M197.4,125.8l1.3,3.4c0.1,0.4,0.3,0.8,0.4,1.2h0c0.1-0.3,0.2-0.8,0.4-1.2l1.2-3.4h1.1l-1.6,4.1
			c-0.8,2-1.3,3-2,3.6c-0.5,0.5-1,0.6-1.3,0.7l-0.3-0.9c0.3-0.1,0.6-0.3,0.9-0.5c0.3-0.2,0.6-0.6,0.9-1.2c0-0.1,0.1-0.2,0.1-0.3
			c0-0.1,0-0.1-0.1-0.3l-2.1-5.3H197.4z"/>
		<path class="st1" d="M207.8,128.7c0,2.1-1.5,3.1-2.9,3.1c-1.6,0-2.8-1.2-2.8-3c0-1.9,1.3-3.1,2.9-3.1
			C206.7,125.7,207.8,126.9,207.8,128.7z M203.2,128.7c0,1.3,0.7,2.2,1.8,2.2c1,0,1.8-0.9,1.8-2.3c0-1-0.5-2.2-1.7-2.2
			C203.8,126.5,203.2,127.6,203.2,128.7z"/>
		<path class="st1" d="M214,130.1c0,0.6,0,1.1,0,1.6h-0.9l-0.1-0.9h0c-0.3,0.5-0.9,1.1-1.9,1.1c-0.9,0-2-0.5-2-2.5v-3.4h1.1v3.2
			c0,1.1,0.3,1.8,1.3,1.8c0.7,0,1.2-0.5,1.4-1c0.1-0.2,0.1-0.3,0.1-0.5v-3.6h1.1V130.1z"/>
		<path class="st1" d="M219.4,128.5L219.4,128.5c0.2-0.2,0.4-0.5,0.5-0.7l1.7-2h1.3l-2.2,2.4l2.6,3.4h-1.3l-2-2.8l-0.5,0.6v2.2h-1
			v-8.5h1V128.5z"/>
		<path class="st1" d="M224.2,127.4c0-0.6,0-1.1,0-1.6h0.9l0.1,1h0c0.3-0.6,1-1.1,1.9-1.1c0.8,0,2.1,0.5,2.1,2.5v3.5h-1.1v-3.3
			c0-0.9-0.3-1.7-1.3-1.7c-0.7,0-1.2,0.5-1.4,1.1c0,0.1-0.1,0.3-0.1,0.5v3.5h-1.1V127.4z"/>
		<path class="st1" d="M236.1,128.7c0,2.1-1.5,3.1-2.9,3.1c-1.6,0-2.8-1.2-2.8-3c0-1.9,1.3-3.1,2.9-3.1
			C235,125.7,236.1,126.9,236.1,128.7z M231.5,128.7c0,1.3,0.7,2.2,1.8,2.2c1,0,1.8-0.9,1.8-2.3c0-1-0.5-2.2-1.7-2.2
			C232,126.5,231.5,127.6,231.5,128.7z"/>
		<path class="st1" d="M237.7,125.8l0.8,3c0.2,0.6,0.3,1.2,0.4,1.8h0c0.1-0.6,0.3-1.2,0.5-1.8l0.9-3h0.9l0.9,2.9
			c0.2,0.7,0.4,1.3,0.5,1.9h0c0.1-0.6,0.3-1.2,0.4-1.9l0.8-2.9h1l-1.9,5.8h-1l-0.9-2.8c-0.2-0.6-0.4-1.2-0.5-1.9h0
			c-0.1,0.7-0.3,1.3-0.5,1.9l-0.9,2.8h-1l-1.8-5.8H237.7z"/>
		<path class="st1" d="M249.1,125.8l0.8,3c0.2,0.6,0.3,1.2,0.4,1.8h0c0.1-0.6,0.3-1.2,0.5-1.8l0.9-3h0.9l0.9,2.9
			c0.2,0.7,0.4,1.3,0.5,1.9h0c0.1-0.6,0.3-1.2,0.4-1.9l0.8-2.9h1l-1.9,5.8h-1l-0.9-2.8c-0.2-0.6-0.4-1.2-0.5-1.9h0
			c-0.1,0.7-0.3,1.3-0.5,1.9l-0.9,2.8h-1l-1.8-5.8H249.1z"/>
		<path class="st1" d="M257.5,123.1h1.1v3.6h0c0.2-0.3,0.4-0.6,0.8-0.7c0.3-0.2,0.7-0.3,1.1-0.3c0.8,0,2,0.5,2,2.5v3.5h-1.1v-3.3
			c0-0.9-0.3-1.7-1.3-1.7c-0.7,0-1.2,0.5-1.4,1.1c-0.1,0.1-0.1,0.3-0.1,0.5v3.5h-1.1V123.1z"/>
		<path class="st1" d="M264.8,128.9c0,1.4,0.9,2,2,2c0.8,0,1.2-0.1,1.6-0.3l0.2,0.8c-0.4,0.2-1,0.4-1.9,0.4c-1.8,0-2.9-1.2-2.9-2.9
			c0-1.8,1-3.1,2.7-3.1c1.9,0,2.4,1.7,2.4,2.7c0,0.2,0,0.4,0,0.5H264.8z M267.9,128.2c0-0.7-0.3-1.7-1.5-1.7c-1.1,0-1.5,1-1.6,1.7
			H267.9z"/>
		<path class="st1" d="M270.2,127.6c0-0.7,0-1.3,0-1.8h0.9l0,1.1h0c0.3-0.8,0.9-1.3,1.6-1.3c0.1,0,0.2,0,0.3,0v1c-0.1,0-0.2,0-0.4,0
			c-0.7,0-1.3,0.6-1.4,1.4c0,0.1,0,0.3,0,0.5v3.1h-1V127.6z"/>
		<path class="st1" d="M274.6,128.9c0,1.4,0.9,2,2,2c0.8,0,1.2-0.1,1.6-0.3l0.2,0.8c-0.4,0.2-1,0.4-1.9,0.4c-1.8,0-2.9-1.2-2.9-2.9
			c0-1.8,1-3.1,2.7-3.1c1.9,0,2.4,1.7,2.4,2.7c0,0.2,0,0.4,0,0.5H274.6z M277.7,128.2c0-0.7-0.3-1.7-1.5-1.7c-1.1,0-1.5,1-1.6,1.7
			H277.7z"/>
		<path class="st1" d="M183.5,138v8.1h-1V138H183.5z"/>
		<path class="st1" d="M192,145.8c-0.3,0.1-0.9,0.3-1.7,0.3c-1.8,0-2.9-1.2-2.9-3c0-1.8,1.2-3.1,3.1-3.1c0.6,0,1.2,0.2,1.5,0.3
			l-0.2,0.8c-0.3-0.1-0.6-0.3-1.2-0.3c-1.3,0-2.1,1-2.1,2.2c0,1.3,0.9,2.2,2,2.2c0.6,0,1-0.2,1.3-0.3L192,145.8z"/>
		<path class="st1" d="M197.3,144.6c0,0.5,0,1,0.1,1.4h-1l-0.1-0.7h0c-0.3,0.5-0.9,0.9-1.8,0.9c-1.2,0-1.8-0.8-1.8-1.7
			c0-1.4,1.2-2.2,3.5-2.2v-0.1c0-0.5-0.1-1.3-1.3-1.3c-0.5,0-1.1,0.2-1.5,0.4l-0.2-0.7c0.5-0.3,1.2-0.5,1.9-0.5
			c1.8,0,2.2,1.2,2.2,2.4V144.6z M196.3,143.1c-1.2,0-2.5,0.2-2.5,1.3c0,0.7,0.5,1,1,1c0.8,0,1.2-0.5,1.4-1c0-0.1,0.1-0.2,0.1-0.3
			V143.1z"/>
		<path class="st1" d="M199,141.8c0-0.6,0-1.1,0-1.6h0.9l0.1,1h0c0.3-0.6,1-1.1,1.9-1.1c0.8,0,2.1,0.5,2.1,2.5v3.5h-1.1v-3.3
			c0-0.9-0.3-1.7-1.3-1.7c-0.7,0-1.2,0.5-1.4,1.1c0,0.1-0.1,0.3-0.1,0.5v3.5H199V141.8z"/>
		<path class="st1" d="M208.3,146v-5h-0.8v-0.8h0.8v-0.3c0-1.5,0.9-2.5,2.5-2.5c0.5,0,1.2,0.2,1.5,0.4l-0.3,0.8
			c-0.3-0.2-0.7-0.3-1.2-0.3c-1.1,0-1.4,0.8-1.4,1.7v0.3h3.4v5.8h-1v-5h-2.3v5H208.3z"/>
		<path class="st1" d="M214.5,141.8c0-0.6,0-1.1,0-1.6h0.9l0.1,1h0c0.3-0.6,1-1.1,1.9-1.1c0.8,0,2.1,0.5,2.1,2.5v3.5h-1.1v-3.3
			c0-0.9-0.3-1.7-1.3-1.7c-0.7,0-1.2,0.5-1.4,1.1c0,0.1-0.1,0.3-0.1,0.5v3.5h-1.1V141.8z"/>
		<path class="st1" d="M226.2,137.5v7c0,0.5,0,1.1,0,1.5h-0.9l0-1h0c-0.3,0.6-1,1.1-2,1.1c-1.4,0-2.5-1.2-2.5-3
			c0-1.9,1.2-3.1,2.6-3.1c0.9,0,1.5,0.4,1.8,0.9h0v-3.5H226.2z M225.1,142.6c0-0.1,0-0.3,0-0.4c-0.2-0.7-0.7-1.2-1.5-1.2
			c-1.1,0-1.7,1-1.7,2.2c0,1.2,0.6,2.1,1.7,2.1c0.7,0,1.4-0.5,1.5-1.3c0-0.1,0-0.3,0-0.5V142.6z"/>
		<path class="st1" d="M235.4,145.2c0,1.3-0.3,2.1-0.8,2.7c-0.6,0.5-1.4,0.7-2.1,0.7c-0.7,0-1.5-0.2-1.9-0.5l0.3-0.8
			c0.4,0.2,1,0.5,1.7,0.5c1.1,0,1.9-0.6,1.9-2V145h0c-0.3,0.5-0.9,1-1.8,1c-1.4,0-2.5-1.2-2.5-2.8c0-2,1.3-3.1,2.6-3.1
			c1,0,1.6,0.5,1.8,1h0l0-0.9h0.9c0,0.4,0,0.9,0,1.6V145.2z M234.4,142.5c0-0.2,0-0.3-0.1-0.5c-0.2-0.6-0.7-1.1-1.5-1.1
			c-1,0-1.7,0.9-1.7,2.2c0,1.1,0.6,2.1,1.7,2.1c0.6,0,1.2-0.4,1.5-1.1c0.1-0.2,0.1-0.4,0.1-0.6V142.5z"/>
		<path class="st1" d="M242.4,143.1c0,2.1-1.5,3.1-2.9,3.1c-1.6,0-2.8-1.2-2.8-3c0-1.9,1.3-3.1,2.9-3.1
			C241.3,140.1,242.4,141.3,242.4,143.1z M237.8,143.1c0,1.3,0.7,2.2,1.8,2.2c1,0,1.8-0.9,1.8-2.3c0-1-0.5-2.2-1.7-2.2
			C238.3,140.9,237.8,142,237.8,143.1z"/>
		<path class="st1" d="M249,143.1c0,2.1-1.5,3.1-2.9,3.1c-1.6,0-2.8-1.2-2.8-3c0-1.9,1.3-3.1,2.9-3.1
			C247.9,140.1,249,141.3,249,143.1z M244.4,143.1c0,1.3,0.7,2.2,1.8,2.2c1,0,1.8-0.9,1.8-2.3c0-1-0.5-2.2-1.7-2.2
			C244.9,140.9,244.4,142,244.4,143.1z"/>
		<path class="st1" d="M255.3,145.2c0,1.3-0.3,2.1-0.8,2.7c-0.6,0.5-1.4,0.7-2.1,0.7c-0.7,0-1.5-0.2-1.9-0.5l0.3-0.8
			c0.4,0.2,1,0.5,1.7,0.5c1.1,0,1.9-0.6,1.9-2V145h0c-0.3,0.5-0.9,1-1.8,1c-1.4,0-2.5-1.2-2.5-2.8c0-2,1.3-3.1,2.6-3.1
			c1,0,1.6,0.5,1.8,1h0l0-0.9h0.9c0,0.4,0,0.9,0,1.6V145.2z M254.2,142.5c0-0.2,0-0.3-0.1-0.5c-0.2-0.6-0.7-1.1-1.5-1.1
			c-1,0-1.7,0.9-1.7,2.2c0,1.1,0.6,2.1,1.7,2.1c0.6,0,1.2-0.4,1.5-1.1c0.1-0.2,0.1-0.4,0.1-0.6V142.5z"/>
		<path class="st1" d="M257,137.5h1.1v8.5H257V137.5z"/>
		<path class="st1" d="M260.5,143.3c0,1.4,0.9,2,2,2c0.8,0,1.2-0.1,1.6-0.3l0.2,0.8c-0.4,0.2-1,0.4-1.9,0.4c-1.8,0-2.9-1.2-2.9-2.9
			s1-3.1,2.7-3.1c1.9,0,2.4,1.7,2.4,2.7c0,0.2,0,0.4,0,0.5H260.5z M263.6,142.6c0-0.7-0.3-1.7-1.5-1.7c-1.1,0-1.5,1-1.6,1.7H263.6z"
			/>
		<path class="st1" d="M266.2,146.2c-0.4,0-0.7-0.3-0.7-0.8c0-0.4,0.3-0.8,0.7-0.8s0.7,0.3,0.7,0.8
			C266.9,145.8,266.6,146.2,266.2,146.2L266.2,146.2z"/>
		<path class="st1" d="M272.4,145.8c-0.3,0.1-0.9,0.3-1.7,0.3c-1.8,0-2.9-1.2-2.9-3c0-1.8,1.2-3.1,3.1-3.1c0.6,0,1.2,0.2,1.5,0.3
			l-0.2,0.8c-0.3-0.1-0.6-0.3-1.2-0.3c-1.3,0-2.1,1-2.1,2.2c0,1.3,0.9,2.2,2,2.2c0.6,0,1-0.2,1.3-0.3L272.4,145.8z"/>
		<path class="st1" d="M278.8,143.1c0,2.1-1.5,3.1-2.9,3.1c-1.6,0-2.8-1.2-2.8-3c0-1.9,1.3-3.1,2.9-3.1
			C277.7,140.1,278.8,141.3,278.8,143.1z M274.2,143.1c0,1.3,0.7,2.2,1.8,2.2c1,0,1.8-0.9,1.8-2.3c0-1-0.5-2.2-1.7-2.2
			C274.7,140.9,274.2,142,274.2,143.1z"/>
		<path class="st1" d="M280.1,141.8c0-0.6,0-1.1,0-1.6h0.9l0,0.9h0c0.3-0.6,0.9-1.1,1.8-1.1c0.8,0,1.4,0.5,1.6,1.2h0
			c0.2-0.3,0.4-0.6,0.6-0.8c0.3-0.3,0.7-0.4,1.3-0.4c0.8,0,1.9,0.5,1.9,2.5v3.4h-1v-3.3c0-1.1-0.4-1.8-1.3-1.8c-0.6,0-1.1,0.4-1.2,1
			c0,0.1-0.1,0.3-0.1,0.5v3.6h-1v-3.5c0-0.9-0.4-1.6-1.2-1.6c-0.7,0-1.1,0.5-1.3,1.1c-0.1,0.2-0.1,0.3-0.1,0.5v3.5h-1V141.8z"/>
		<path class="st1" d="M290.9,143.7l0-0.3c-0.1-0.6,0.1-1.4,0.7-2.1c0.5-0.6,0.8-1.1,0.8-1.7c0-0.6-0.4-1-1.1-1
			c-0.4,0-0.9,0.1-1.2,0.4l-0.3-0.8c0.4-0.3,1.1-0.5,1.7-0.5c1.4,0,2,0.9,2,1.8c0,0.8-0.5,1.4-1,2.1c-0.5,0.6-0.7,1.2-0.7,1.8l0,0.3
			H290.9z M291.4,146.2c-0.4,0-0.7-0.3-0.7-0.7c0-0.4,0.3-0.8,0.7-0.8s0.7,0.3,0.7,0.8C292.1,145.8,291.8,146.2,291.4,146.2
			L291.4,146.2z"/>
	</g>
	<g>
		<path class="st1" d="M320.7,491.2h-2.5v-0.9h6v0.9h-2.5v7.2h-1.1V491.2z"/>
		<path class="st1" d="M325,489.9h1.1v3.6h0c0.2-0.3,0.4-0.6,0.8-0.7c0.3-0.2,0.7-0.3,1.1-0.3c0.8,0,2,0.5,2,2.5v3.5h-1.1v-3.3
			c0-0.9-0.3-1.7-1.3-1.7c-0.7,0-1.2,0.5-1.4,1.1c-0.1,0.1-0.1,0.3-0.1,0.5v3.5H325V489.9z"/>
		<path class="st1" d="M335.8,497c0,0.5,0,1,0.1,1.4h-1l-0.1-0.7h0c-0.3,0.5-0.9,0.9-1.8,0.9c-1.2,0-1.8-0.8-1.8-1.7
			c0-1.4,1.2-2.2,3.5-2.2v-0.1c0-0.5-0.1-1.3-1.3-1.3c-0.5,0-1.1,0.2-1.5,0.4l-0.2-0.7c0.5-0.3,1.2-0.5,1.9-0.5
			c1.8,0,2.2,1.2,2.2,2.4V497z M334.7,495.5c-1.2,0-2.5,0.2-2.5,1.3c0,0.7,0.5,1,1,1c0.8,0,1.2-0.5,1.4-1c0-0.1,0.1-0.2,0.1-0.3
			V495.5z"/>
		<path class="st1" d="M337.5,494.2c0-0.6,0-1.1,0-1.6h0.9l0.1,1h0c0.3-0.6,1-1.1,1.9-1.1c0.8,0,2.1,0.5,2.1,2.5v3.5h-1.1v-3.3
			c0-0.9-0.3-1.7-1.3-1.7c-0.7,0-1.2,0.5-1.4,1.1c0,0.1-0.1,0.3-0.1,0.5v3.5h-1.1V494.2z"/>
		<path class="st1" d="M345.2,495.3L345.2,495.3c0.2-0.2,0.4-0.5,0.5-0.7l1.7-2h1.3l-2.2,2.4l2.6,3.4h-1.3l-2-2.8l-0.5,0.6v2.2h-1
			v-8.5h1V495.3z"/>
		<path class="st1" d="M349.6,497.3c0.3,0.2,0.9,0.4,1.4,0.4c0.8,0,1.1-0.4,1.1-0.9c0-0.5-0.3-0.8-1.1-1.1c-1-0.4-1.5-0.9-1.5-1.6
			c0-0.9,0.8-1.7,2-1.7c0.6,0,1.1,0.2,1.4,0.4l-0.3,0.8c-0.2-0.1-0.6-0.3-1.2-0.3c-0.6,0-1,0.4-1,0.8c0,0.5,0.3,0.7,1.1,1
			c1,0.4,1.5,0.9,1.5,1.8c0,1-0.8,1.8-2.2,1.8c-0.6,0-1.2-0.2-1.6-0.4L349.6,497.3z"/>
		<path class="st1" d="M353.7,499.9c0.3-0.7,0.6-2,0.7-2.9l1.2-0.1c-0.3,1-0.8,2.4-1.1,2.9L353.7,499.9z"/>
		<path class="st1" d="M359.4,494.2c0-0.6,0-1.1,0-1.6h0.9l0.1,1h0c0.3-0.6,1-1.1,1.9-1.1c0.8,0,2.1,0.5,2.1,2.5v3.5h-1.1v-3.3
			c0-0.9-0.3-1.7-1.3-1.7c-0.7,0-1.2,0.5-1.4,1.1c0,0.1-0.1,0.3-0.1,0.5v3.5h-1.1V494.2z"/>
		<path class="st1" d="M371.3,495.5c0,2.1-1.5,3.1-2.9,3.1c-1.6,0-2.8-1.2-2.8-3c0-1.9,1.3-3.1,2.9-3.1
			C370.2,492.5,371.3,493.7,371.3,495.5z M366.7,495.5c0,1.3,0.7,2.2,1.8,2.2c1,0,1.8-0.9,1.8-2.3c0-1-0.5-2.2-1.7-2.2
			C367.2,493.3,366.7,494.4,366.7,495.5z"/>
		<path class="st1" d="M373,492.6l0.8,3c0.2,0.6,0.3,1.2,0.4,1.8h0c0.1-0.6,0.3-1.2,0.5-1.8l0.9-3h0.9l0.9,2.9
			c0.2,0.7,0.4,1.3,0.5,1.9h0c0.1-0.6,0.3-1.2,0.4-1.9l0.8-2.9h1l-1.9,5.8h-1l-0.9-2.8c-0.2-0.6-0.4-1.2-0.5-1.9h0
			c-0.1,0.7-0.3,1.3-0.5,1.9l-0.9,2.8h-1l-1.8-5.8H373z"/>
		<path class="st1" d="M385,490.3v8.1h-1v-8.1H385z"/>
		<path class="st1" d="M390.4,495.3L390.4,495.3c0.2-0.2,0.4-0.5,0.5-0.7l1.7-2h1.3l-2.2,2.4l2.6,3.4h-1.3l-2-2.8l-0.5,0.6v2.2h-1
			v-8.5h1V495.3z"/>
		<path class="st1" d="M395.2,494.2c0-0.6,0-1.1,0-1.6h0.9l0.1,1h0c0.3-0.6,1-1.1,1.9-1.1c0.8,0,2.1,0.5,2.1,2.5v3.5h-1.1v-3.3
			c0-0.9-0.3-1.7-1.3-1.7c-0.7,0-1.2,0.5-1.4,1.1c0,0.1-0.1,0.3-0.1,0.5v3.5h-1.1V494.2z"/>
		<path class="st1" d="M407.1,495.5c0,2.1-1.5,3.1-2.9,3.1c-1.6,0-2.8-1.2-2.8-3c0-1.9,1.3-3.1,2.9-3.1
			C406,492.5,407.1,493.7,407.1,495.5z M402.5,495.5c0,1.3,0.7,2.2,1.8,2.2c1,0,1.8-0.9,1.8-2.3c0-1-0.5-2.2-1.7-2.2
			C403,493.3,402.5,494.4,402.5,495.5z"/>
		<path class="st1" d="M408.8,492.6l0.8,3c0.2,0.6,0.3,1.2,0.4,1.8h0c0.1-0.6,0.3-1.2,0.5-1.8l0.9-3h0.9l0.9,2.9
			c0.2,0.7,0.4,1.3,0.5,1.9h0c0.1-0.6,0.3-1.2,0.4-1.9l0.8-2.9h1l-1.9,5.8h-1l-0.9-2.8c-0.2-0.6-0.4-1.2-0.5-1.9h0
			c-0.1,0.7-0.3,1.3-0.5,1.9l-0.9,2.8h-1l-1.8-5.8H408.8z"/>
		<path class="st1" d="M420.1,492.6l0.8,3c0.2,0.6,0.3,1.2,0.4,1.8h0c0.1-0.6,0.3-1.2,0.5-1.8l0.9-3h0.9l0.9,2.9
			c0.2,0.7,0.4,1.3,0.5,1.9h0c0.1-0.6,0.3-1.2,0.4-1.9l0.8-2.9h1l-1.9,5.8h-1l-0.9-2.8c-0.2-0.6-0.4-1.2-0.5-1.9h0
			c-0.1,0.7-0.3,1.3-0.5,1.9l-0.9,2.8h-1l-1.8-5.8H420.1z"/>
		<path class="st1" d="M428.6,489.9h1.1v3.6h0c0.2-0.3,0.4-0.6,0.8-0.7c0.3-0.2,0.7-0.3,1.1-0.3c0.8,0,2,0.5,2,2.5v3.5h-1.1v-3.3
			c0-0.9-0.3-1.7-1.3-1.7c-0.7,0-1.2,0.5-1.4,1.1c-0.1,0.1-0.1,0.3-0.1,0.5v3.5h-1.1V489.9z"/>
		<path class="st1" d="M435.8,495.7c0,1.4,0.9,2,2,2c0.8,0,1.2-0.1,1.6-0.3l0.2,0.8c-0.4,0.2-1,0.4-1.9,0.4c-1.8,0-2.9-1.2-2.9-2.9
			c0-1.8,1-3.1,2.7-3.1c1.9,0,2.4,1.7,2.4,2.7c0,0.2,0,0.4,0,0.5H435.8z M438.9,495c0-0.7-0.3-1.7-1.5-1.7c-1.1,0-1.5,1-1.6,1.7
			H438.9z"/>
		<path class="st1" d="M441.2,494.4c0-0.7,0-1.3,0-1.8h0.9l0,1.1h0c0.3-0.8,0.9-1.3,1.6-1.3c0.1,0,0.2,0,0.3,0v1c-0.1,0-0.2,0-0.4,0
			c-0.7,0-1.3,0.6-1.4,1.4c0,0.1,0,0.3,0,0.5v3.1h-1V494.4z"/>
		<path class="st1" d="M445.6,495.7c0,1.4,0.9,2,2,2c0.8,0,1.2-0.1,1.6-0.3l0.2,0.8c-0.4,0.2-1,0.4-1.9,0.4c-1.8,0-2.9-1.2-2.9-2.9
			c0-1.8,1-3.1,2.7-3.1c1.9,0,2.4,1.7,2.4,2.7c0,0.2,0,0.4,0,0.5H445.6z M448.7,495c0-0.7-0.3-1.7-1.5-1.7c-1.1,0-1.5,1-1.6,1.7
			H448.7z"/>
		<path class="st1" d="M454.9,491.2v1.4h1.5v0.8h-1.5v3.1c0,0.7,0.2,1.1,0.8,1.1c0.3,0,0.5,0,0.6-0.1l0,0.8
			c-0.2,0.1-0.5,0.2-0.9,0.2c-0.5,0-0.9-0.2-1.1-0.5c-0.3-0.3-0.4-0.8-0.4-1.5v-3.2h-0.9v-0.8h0.9v-1.1L454.9,491.2z"/>
		<path class="st1" d="M462.7,495.5c0,2.1-1.5,3.1-2.9,3.1c-1.6,0-2.8-1.2-2.8-3c0-1.9,1.3-3.1,2.9-3.1
			C461.6,492.5,462.7,493.7,462.7,495.5z M458.1,495.5c0,1.3,0.7,2.2,1.8,2.2c1,0,1.8-0.9,1.8-2.3c0-1-0.5-2.2-1.7-2.2
			C458.7,493.3,458.1,494.4,458.1,495.5z"/>
		<path class="st1" d="M471.6,497.6c0,1.3-0.3,2.1-0.8,2.7c-0.6,0.5-1.4,0.7-2.1,0.7c-0.7,0-1.5-0.2-1.9-0.5l0.3-0.8
			c0.4,0.2,1,0.5,1.7,0.5c1.1,0,1.9-0.6,1.9-2v-0.6h0c-0.3,0.5-0.9,1-1.8,1c-1.4,0-2.5-1.2-2.5-2.8c0-2,1.3-3.1,2.6-3.1
			c1,0,1.6,0.5,1.8,1h0l0-0.9h0.9c0,0.4,0,0.9,0,1.6V497.6z M470.5,494.9c0-0.2,0-0.3-0.1-0.5c-0.2-0.6-0.7-1.1-1.5-1.1
			c-1,0-1.7,0.9-1.7,2.2c0,1.1,0.6,2.1,1.7,2.1c0.6,0,1.2-0.4,1.5-1.1c0.1-0.2,0.1-0.4,0.1-0.6V494.9z"/>
		<path class="st1" d="M478.6,495.5c0,2.1-1.5,3.1-2.9,3.1c-1.6,0-2.8-1.2-2.8-3c0-1.9,1.3-3.1,2.9-3.1
			C477.5,492.5,478.6,493.7,478.6,495.5z M474,495.5c0,1.3,0.7,2.2,1.8,2.2c1,0,1.8-0.9,1.8-2.3c0-1-0.5-2.2-1.7-2.2
			C474.5,493.3,474,494.4,474,495.5z"/>
		<path class="st1" d="M480.7,498.6c-0.4,0-0.7-0.3-0.7-0.8c0-0.4,0.3-0.8,0.7-0.8c0.4,0,0.7,0.3,0.7,0.8
			C481.5,498.2,481.2,498.6,480.7,498.6L480.7,498.6z M484.7,498.6c-0.4,0-0.7-0.3-0.7-0.8c0-0.4,0.3-0.8,0.7-0.8s0.7,0.3,0.7,0.8
			C485.5,498.2,485.2,498.6,484.7,498.6L484.7,498.6z M488.7,498.6c-0.4,0-0.7-0.3-0.7-0.8c0-0.4,0.3-0.8,0.7-0.8
			c0.4,0,0.7,0.3,0.7,0.8C489.5,498.2,489.2,498.6,488.7,498.6L488.7,498.6z"/>
	</g>
	<g>
		<path class="st1" d="M370.9,363.2c-0.5,0.2-1.4,0.4-2.5,0.4c-1.2,0-2.2-0.3-3-1.1c-0.7-0.7-1.1-1.8-1.1-3c0-2.4,1.7-4.2,4.4-4.2
			c0.9,0,1.7,0.2,2,0.4l-0.3,0.9c-0.4-0.2-1-0.3-1.8-0.3c-2,0-3.2,1.2-3.2,3.2c0,2.1,1.2,3.3,3.1,3.3c0.7,0,1.2-0.1,1.4-0.2v-2.4
			h-1.6v-0.8h2.7V363.2z"/>
		<path class="st1" d="M377.8,360.6c0,2.1-1.5,3.1-2.9,3.1c-1.6,0-2.8-1.2-2.8-3c0-1.9,1.3-3.1,2.9-3.1
			C376.7,357.6,377.8,358.8,377.8,360.6z M373.2,360.7c0,1.3,0.7,2.2,1.8,2.2c1,0,1.8-0.9,1.8-2.3c0-1-0.5-2.2-1.7-2.2
			C373.7,358.4,373.2,359.6,373.2,360.7z"/>
		<path class="st1" d="M384.4,360.6c0,2.1-1.5,3.1-2.9,3.1c-1.6,0-2.8-1.2-2.8-3c0-1.9,1.3-3.1,2.9-3.1
			C383.2,357.6,384.4,358.8,384.4,360.6z M379.8,360.7c0,1.3,0.7,2.2,1.8,2.2c1,0,1.8-0.9,1.8-2.3c0-1-0.5-2.2-1.7-2.2
			C380.3,358.4,379.8,359.6,379.8,360.7z"/>
		<path class="st1" d="M390.7,362.7c0,1.3-0.3,2.1-0.8,2.7c-0.6,0.5-1.4,0.7-2.1,0.7c-0.7,0-1.5-0.2-1.9-0.5l0.3-0.8
			c0.4,0.2,1,0.5,1.7,0.5c1.1,0,1.9-0.6,1.9-2v-0.6h0c-0.3,0.5-0.9,1-1.8,1c-1.4,0-2.5-1.2-2.5-2.8c0-2,1.3-3.1,2.6-3.1
			c1,0,1.6,0.5,1.8,1h0l0-0.9h0.9c0,0.4,0,0.9,0,1.6V362.7z M389.6,360c0-0.2,0-0.3-0.1-0.5c-0.2-0.6-0.7-1.1-1.5-1.1
			c-1,0-1.7,0.9-1.7,2.2c0,1.1,0.6,2.1,1.7,2.1c0.6,0,1.2-0.4,1.5-1.1c0.1-0.2,0.1-0.4,0.1-0.6V360z"/>
		<path class="st1" d="M392.4,355h1.1v8.5h-1.1V355z"/>
		<path class="st1" d="M395.8,360.8c0,1.4,0.9,2,2,2c0.8,0,1.2-0.1,1.6-0.3l0.2,0.8c-0.4,0.2-1,0.4-1.9,0.4c-1.8,0-2.9-1.2-2.9-2.9
			c0-1.8,1-3.1,2.7-3.1c1.9,0,2.4,1.7,2.4,2.7c0,0.2,0,0.4,0,0.5H395.8z M398.9,360.1c0-0.7-0.3-1.7-1.5-1.7c-1.1,0-1.5,1-1.6,1.7
			H398.9z"/>
		<path class="st1" d="M402.3,355.3c-0.3,1-0.8,2.3-1.1,2.8l-0.7,0.1c0.3-0.7,0.6-1.9,0.7-2.8L402.3,355.3z"/>
		<path class="st1" d="M402.4,362.5c0.3,0.2,0.9,0.4,1.4,0.4c0.8,0,1.1-0.4,1.1-0.9c0-0.5-0.3-0.8-1.1-1.1c-1-0.4-1.5-0.9-1.5-1.6
			c0-0.9,0.8-1.7,2-1.7c0.6,0,1.1,0.2,1.4,0.4l-0.3,0.8c-0.2-0.1-0.6-0.3-1.2-0.3c-0.6,0-1,0.4-1,0.8c0,0.5,0.3,0.7,1.1,1
			c1,0.4,1.5,0.9,1.5,1.8c0,1-0.8,1.8-2.2,1.8c-0.6,0-1.2-0.2-1.6-0.4L402.4,362.5z"/>
		<path class="st1" d="M413.9,362.2c0,0.5,0,1,0.1,1.4h-1l-0.1-0.7h0c-0.3,0.5-0.9,0.9-1.8,0.9c-1.2,0-1.8-0.8-1.8-1.7
			c0-1.4,1.2-2.2,3.5-2.2v-0.1c0-0.5-0.1-1.3-1.3-1.3c-0.5,0-1.1,0.2-1.5,0.4l-0.2-0.7c0.5-0.3,1.2-0.5,1.9-0.5
			c1.8,0,2.2,1.2,2.2,2.4V362.2z M412.9,360.6c-1.2,0-2.5,0.2-2.5,1.3c0,0.7,0.5,1,1,1c0.8,0,1.2-0.5,1.4-1c0-0.1,0.1-0.2,0.1-0.3
			V360.6z"/>
		<path class="st1" d="M420.7,355v7c0,0.5,0,1.1,0,1.5h-0.9l0-1h0c-0.3,0.6-1,1.1-2,1.1c-1.4,0-2.5-1.2-2.5-3c0-1.9,1.2-3.1,2.6-3.1
			c0.9,0,1.5,0.4,1.8,0.9h0V355H420.7z M419.6,360.1c0-0.1,0-0.3,0-0.4c-0.2-0.7-0.7-1.2-1.5-1.2c-1.1,0-1.7,1-1.7,2.2
			c0,1.2,0.6,2.1,1.7,2.1c0.7,0,1.4-0.5,1.5-1.3c0-0.1,0-0.3,0-0.5V360.1z"/>
		<path class="st1" d="M427.4,355v7c0,0.5,0,1.1,0,1.5h-0.9l0-1h0c-0.3,0.6-1,1.1-2,1.1c-1.4,0-2.5-1.2-2.5-3c0-1.9,1.2-3.1,2.6-3.1
			c0.9,0,1.5,0.4,1.8,0.9h0V355H427.4z M426.4,360.1c0-0.1,0-0.3,0-0.4c-0.2-0.7-0.7-1.2-1.5-1.2c-1.1,0-1.7,1-1.7,2.2
			c0,1.2,0.6,2.1,1.7,2.1c0.7,0,1.4-0.5,1.5-1.3c0-0.1,0-0.3,0-0.5V360.1z"/>
		<path class="st1" d="M429.2,359.6c0-0.7,0-1.3,0-1.8h0.9l0,1.1h0c0.3-0.8,0.9-1.3,1.6-1.3c0.1,0,0.2,0,0.3,0v1c-0.1,0-0.2,0-0.4,0
			c-0.7,0-1.3,0.6-1.4,1.4c0,0.1,0,0.3,0,0.5v3.1h-1V359.6z"/>
		<path class="st1" d="M433.6,360.8c0,1.4,0.9,2,2,2c0.8,0,1.2-0.1,1.6-0.3l0.2,0.8c-0.4,0.2-1,0.4-1.9,0.4c-1.8,0-2.9-1.2-2.9-2.9
			c0-1.8,1-3.1,2.7-3.1c1.9,0,2.4,1.7,2.4,2.7c0,0.2,0,0.4,0,0.5H433.6z M436.7,360.1c0-0.7-0.3-1.7-1.5-1.7c-1.1,0-1.5,1-1.6,1.7
			H436.7z"/>
		<path class="st1" d="M438.9,362.5c0.3,0.2,0.9,0.4,1.4,0.4c0.8,0,1.1-0.4,1.1-0.9c0-0.5-0.3-0.8-1.1-1.1c-1-0.4-1.5-0.9-1.5-1.6
			c0-0.9,0.8-1.7,2-1.7c0.6,0,1.1,0.2,1.4,0.4l-0.3,0.8c-0.2-0.1-0.6-0.3-1.2-0.3c-0.6,0-1,0.4-1,0.8c0,0.5,0.3,0.7,1.1,1
			c1,0.4,1.5,0.9,1.5,1.8c0,1-0.8,1.8-2.2,1.8c-0.6,0-1.2-0.2-1.6-0.4L438.9,362.5z"/>
		<path class="st1" d="M443.6,362.5c0.3,0.2,0.9,0.4,1.4,0.4c0.8,0,1.1-0.4,1.1-0.9c0-0.5-0.3-0.8-1.1-1.1c-1-0.4-1.5-0.9-1.5-1.6
			c0-0.9,0.8-1.7,2-1.7c0.6,0,1.1,0.2,1.4,0.4l-0.3,0.8c-0.2-0.1-0.6-0.3-1.2-0.3c-0.6,0-1,0.4-1,0.8c0,0.5,0.3,0.7,1.1,1
			c1,0.4,1.5,0.9,1.5,1.8c0,1-0.8,1.8-2.2,1.8c-0.6,0-1.2-0.2-1.6-0.4L443.6,362.5z"/>
		<path class="st1" d="M452.2,356.1c0,0.4-0.3,0.6-0.7,0.6c-0.4,0-0.6-0.3-0.6-0.6c0-0.4,0.3-0.7,0.7-0.7
			C452,355.5,452.2,355.8,452.2,356.1z M451.1,363.6v-5.8h1.1v5.8H451.1z"/>
		<path class="st1" d="M453.7,362.5c0.3,0.2,0.9,0.4,1.4,0.4c0.8,0,1.1-0.4,1.1-0.9c0-0.5-0.3-0.8-1.1-1.1c-1-0.4-1.5-0.9-1.5-1.6
			c0-0.9,0.8-1.7,2-1.7c0.6,0,1.1,0.2,1.4,0.4l-0.3,0.8c-0.2-0.1-0.6-0.3-1.2-0.3c-0.6,0-1,0.4-1,0.8c0,0.5,0.3,0.7,1.1,1
			c1,0.4,1.5,0.9,1.5,1.8c0,1-0.8,1.8-2.2,1.8c-0.6,0-1.2-0.2-1.6-0.4L453.7,362.5z"/>
		<path class="st1" d="M463.1,356.7L463.1,356.7l-1.4,0.7l-0.2-0.8l1.7-0.9h0.9v7.8h-1V356.7z"/>
		<path class="st1" d="M472,355.8v0.7l-3.4,7.1h-1.1l3.4-6.9v0h-3.8v-0.9H472z"/>
		<path class="st1" d="M473.1,363.6v-0.6l0.8-0.8c2-1.9,2.9-2.9,2.9-4.1c0-0.8-0.4-1.5-1.5-1.5c-0.7,0-1.3,0.4-1.7,0.7l-0.3-0.7
			c0.5-0.5,1.3-0.8,2.2-0.8c1.7,0,2.4,1.2,2.4,2.3c0,1.4-1,2.6-2.7,4.2l-0.6,0.6v0h3.5v0.9H473.1z"/>
		<path class="st1" d="M480.1,363.7c-0.4,0-0.7-0.3-0.7-0.8c0-0.4,0.3-0.8,0.7-0.8s0.7,0.3,0.7,0.8
			C480.8,363.4,480.5,363.7,480.1,363.7L480.1,363.7z"/>
		<path class="st1" d="M481.8,363.6v-0.6l0.8-0.8c2-1.9,2.9-2.9,2.9-4.1c0-0.8-0.4-1.5-1.5-1.5c-0.7,0-1.3,0.4-1.7,0.7l-0.3-0.7
			c0.5-0.5,1.3-0.8,2.2-0.8c1.7,0,2.4,1.2,2.4,2.3c0,1.4-1,2.6-2.7,4.2l-0.6,0.6v0h3.5v0.9H481.8z"/>
		<path class="st1" d="M490.2,356.7L490.2,356.7l-1.4,0.7l-0.2-0.8l1.7-0.9h0.9v7.8h-1V356.7z"/>
		<path class="st1" d="M499.1,355.8v0.7l-3.4,7.1h-1.1l3.4-6.9v0h-3.8v-0.9H499.1z"/>
		<path class="st1" d="M501,363.7c-0.4,0-0.7-0.3-0.7-0.8c0-0.4,0.3-0.8,0.7-0.8s0.7,0.3,0.7,0.8C501.7,363.4,501.5,363.7,501,363.7
			L501,363.7z"/>
		<path class="st1" d="M507.4,356.7h-3l-0.3,2c0.2,0,0.3,0,0.6,0c0.6,0,1.2,0.1,1.7,0.4c0.6,0.3,1.1,1,1.1,2c0,1.5-1.2,2.7-2.9,2.7
			c-0.9,0-1.6-0.2-1.9-0.5l0.3-0.8c0.3,0.2,1,0.4,1.7,0.4c1,0,1.8-0.6,1.8-1.7c0-1-0.7-1.7-2.2-1.7c-0.4,0-0.8,0-1.1,0.1l0.5-3.7
			h3.7V356.7z"/>
		<path class="st1" d="M509.7,363.7c-0.4,0-0.7-0.3-0.7-0.8c0-0.4,0.3-0.8,0.7-0.8s0.7,0.3,0.7,0.8
			C510.4,363.4,510.1,363.7,509.7,363.7L509.7,363.7z"/>
		<path class="st1" d="M511.4,363.6v-0.6l0.8-0.8c2-1.9,2.9-2.9,2.9-4.1c0-0.8-0.4-1.5-1.5-1.5c-0.7,0-1.3,0.4-1.7,0.7l-0.3-0.7
			c0.5-0.5,1.3-0.8,2.2-0.8c1.7,0,2.4,1.2,2.4,2.3c0,1.4-1,2.6-2.7,4.2l-0.6,0.6v0h3.5v0.9H511.4z"/>
		<path class="st1" d="M517.8,362.3c0.3,0.2,1,0.5,1.7,0.5c1.4,0,1.8-0.9,1.8-1.5c0-1.1-1-1.6-2-1.6h-0.6V359h0.6
			c0.8,0,1.7-0.4,1.7-1.3c0-0.6-0.4-1.2-1.4-1.2c-0.6,0-1.2,0.3-1.6,0.5l-0.3-0.8c0.4-0.3,1.2-0.6,2-0.6c1.5,0,2.2,0.9,2.2,1.9
			c0,0.8-0.5,1.5-1.4,1.8v0c1,0.2,1.7,0.9,1.7,2c0,1.2-1,2.3-2.8,2.3c-0.9,0-1.6-0.3-2-0.5L517.8,362.3z"/>
	</g>
	<g>
		<path class="st2" d="M558.1,202.7H555v2.9h3.5v0.9H554v-8.1h4.4v0.9H555v2.6h3.1V202.7z"/>
		<path class="st2" d="M560.3,200.7l0.8,1.2c0.2,0.3,0.4,0.6,0.6,0.9h0c0.2-0.3,0.4-0.6,0.6-1l0.8-1.2h1.1l-2,2.8l2,3h-1.2l-0.9-1.3
			c-0.2-0.3-0.4-0.7-0.6-1h0c-0.2,0.4-0.4,0.7-0.6,1l-0.8,1.3H559l2.1-3l-2-2.8H560.3z"/>
		<path class="st2" d="M566.8,199.3v1.4h1.5v0.8h-1.5v3.1c0,0.7,0.2,1.1,0.8,1.1c0.3,0,0.5,0,0.6-0.1l0,0.8
			c-0.2,0.1-0.5,0.2-0.9,0.2c-0.5,0-0.9-0.2-1.1-0.5c-0.3-0.3-0.4-0.8-0.4-1.5v-3.2h-0.9v-0.8h0.9v-1.1L566.8,199.3z"/>
		<path class="st2" d="M570,203.8c0,1.4,0.9,2,2,2c0.8,0,1.2-0.1,1.6-0.3l0.2,0.8c-0.4,0.2-1,0.4-1.9,0.4c-1.8,0-2.9-1.2-2.9-2.9
			s1-3.1,2.7-3.1c1.9,0,2.4,1.7,2.4,2.7c0,0.2,0,0.4,0,0.5H570z M573.1,203.1c0-0.7-0.3-1.7-1.5-1.7c-1.1,0-1.5,1-1.6,1.7H573.1z"/>
		<path class="st2" d="M575.4,202.5c0-0.7,0-1.3,0-1.8h0.9l0,1.1h0c0.3-0.8,0.9-1.3,1.6-1.3c0.1,0,0.2,0,0.3,0v1c-0.1,0-0.2,0-0.4,0
			c-0.7,0-1.3,0.6-1.4,1.4c0,0.1,0,0.3,0,0.5v3.1h-1V202.5z"/>
		<path class="st2" d="M579.4,202.3c0-0.6,0-1.1,0-1.6h0.9l0.1,1h0c0.3-0.6,1-1.1,1.9-1.1c0.8,0,2.1,0.5,2.1,2.5v3.5h-1.1v-3.3
			c0-0.9-0.3-1.7-1.3-1.7c-0.7,0-1.2,0.5-1.4,1.1c0,0.1-0.1,0.3-0.1,0.5v3.5h-1.1V202.3z"/>
		<path class="st2" d="M590.2,205.1c0,0.5,0,1,0.1,1.4h-1l-0.1-0.7h0c-0.3,0.5-0.9,0.9-1.8,0.9c-1.2,0-1.8-0.8-1.8-1.7
			c0-1.4,1.2-2.2,3.5-2.2v-0.1c0-0.5-0.1-1.3-1.3-1.3c-0.5,0-1.1,0.2-1.5,0.4l-0.2-0.7c0.5-0.3,1.2-0.5,1.9-0.5
			c1.8,0,2.2,1.2,2.2,2.4V205.1z M589.1,203.6c-1.2,0-2.5,0.2-2.5,1.3c0,0.7,0.5,1,1,1c0.8,0,1.2-0.5,1.4-1c0-0.1,0.1-0.2,0.1-0.3
			V203.6z"/>
		<path class="st2" d="M591.9,198h1.1v8.5h-1.1V198z"/>
		<path class="st2" d="M597.3,198.6c0.6-0.1,1.4-0.2,2.2-0.2c1.5,0,2.6,0.3,3.3,1c0.7,0.7,1.1,1.6,1.1,2.9c0,1.3-0.4,2.4-1.2,3.1
			c-0.8,0.8-2,1.2-3.6,1.2c-0.7,0-1.4,0-1.9-0.1V198.6z M598.3,205.7c0.3,0,0.6,0.1,1.1,0.1c2.2,0,3.4-1.2,3.4-3.4
			c0-1.9-1.1-3.1-3.3-3.1c-0.5,0-0.9,0-1.2,0.1V205.7z"/>
		<path class="st2" d="M605.3,206.5v-8.1h1.1l2.6,4.1c0.6,0.9,1.1,1.8,1.5,2.6l0,0c-0.1-1.1-0.1-2.1-0.1-3.3v-3.4h1v8.1h-1.1
			l-2.6-4.1c-0.6-0.9-1.1-1.8-1.5-2.7l0,0c0.1,1,0.1,2,0.1,3.3v3.5H605.3z"/>
		<path class="st2" d="M613,205.3c0.5,0.3,1.2,0.5,1.9,0.5c1.1,0,1.7-0.6,1.7-1.4c0-0.8-0.4-1.2-1.5-1.6c-1.3-0.5-2.1-1.2-2.1-2.3
			c0-1.3,1-2.2,2.6-2.2c0.8,0,1.4,0.2,1.8,0.4l-0.3,0.9c-0.3-0.1-0.8-0.4-1.5-0.4c-1.1,0-1.5,0.7-1.5,1.2c0,0.8,0.5,1.1,1.6,1.6
			c1.4,0.5,2.1,1.2,2.1,2.4c0,1.2-0.9,2.3-2.8,2.3c-0.8,0-1.6-0.2-2.1-0.5L613,205.3z"/>
		<path class="st2" d="M621.5,205.3c0.5,0.3,1.2,0.5,1.9,0.5c1.1,0,1.7-0.6,1.7-1.4c0-0.8-0.4-1.2-1.5-1.6c-1.3-0.5-2.1-1.2-2.1-2.3
			c0-1.3,1-2.2,2.6-2.2c0.8,0,1.4,0.2,1.8,0.4l-0.3,0.9c-0.3-0.1-0.8-0.4-1.5-0.4c-1.1,0-1.5,0.7-1.5,1.2c0,0.8,0.5,1.1,1.6,1.6
			c1.4,0.5,2.1,1.2,2.1,2.4c0,1.2-0.9,2.3-2.8,2.3c-0.8,0-1.6-0.2-2.1-0.5L621.5,205.3z"/>
		<path class="st2" d="M628.2,203.8c0,1.4,0.9,2,2,2c0.8,0,1.2-0.1,1.6-0.3l0.2,0.8c-0.4,0.2-1,0.4-1.9,0.4c-1.8,0-2.9-1.2-2.9-2.9
			s1-3.1,2.7-3.1c1.9,0,2.4,1.7,2.4,2.7c0,0.2,0,0.4,0,0.5H628.2z M631.3,203.1c0-0.7-0.3-1.7-1.5-1.7c-1.1,0-1.5,1-1.6,1.7H631.3z"
			/>
		<path class="st2" d="M633.6,202.5c0-0.7,0-1.3,0-1.8h0.9l0,1.1h0c0.3-0.8,0.9-1.3,1.6-1.3c0.1,0,0.2,0,0.3,0v1c-0.1,0-0.2,0-0.4,0
			c-0.7,0-1.3,0.6-1.4,1.4c0,0.1,0,0.3,0,0.5v3.1h-1V202.5z"/>
		<path class="st2" d="M638.2,200.7l1.1,3.3c0.2,0.5,0.3,1,0.5,1.5h0c0.1-0.5,0.3-1,0.5-1.5l1.1-3.3h1.1l-2.3,5.8h-1l-2.2-5.8H638.2
			z"/>
		<path class="st2" d="M644,203.8c0,1.4,0.9,2,2,2c0.8,0,1.2-0.1,1.6-0.3l0.2,0.8c-0.4,0.2-1,0.4-1.9,0.4c-1.8,0-2.9-1.2-2.9-2.9
			s1-3.1,2.7-3.1c1.9,0,2.4,1.7,2.4,2.7c0,0.2,0,0.4,0,0.5H644z M647.1,203.1c0-0.7-0.3-1.7-1.5-1.7c-1.1,0-1.5,1-1.6,1.7H647.1z"/>
		<path class="st2" d="M649.5,202.5c0-0.7,0-1.3,0-1.8h0.9l0,1.1h0c0.3-0.8,0.9-1.3,1.6-1.3c0.1,0,0.2,0,0.3,0v1c-0.1,0-0.2,0-0.4,0
			c-0.7,0-1.3,0.6-1.4,1.4c0,0.1,0,0.3,0,0.5v3.1h-1V202.5z"/>
		<path class="st2" d="M653.3,205.5c0.3,0.2,0.9,0.4,1.4,0.4c0.8,0,1.1-0.4,1.1-0.9c0-0.5-0.3-0.8-1.1-1.1c-1-0.4-1.5-0.9-1.5-1.6
			c0-0.9,0.8-1.7,2-1.7c0.6,0,1.1,0.2,1.4,0.4l-0.3,0.8c-0.2-0.1-0.6-0.3-1.2-0.3c-0.6,0-1,0.4-1,0.8c0,0.5,0.3,0.7,1.1,1
			c1,0.4,1.5,0.9,1.5,1.8c0,1-0.8,1.8-2.2,1.8c-0.6,0-1.2-0.2-1.6-0.4L653.3,205.5z"/>
	</g>
	<g>
		<g>
			<rect x="557.4" y="113.6" class="st2" width="88.9" height="24.7"/>
			<rect x="561.2" y="116.2" class="st5" width="2.4" height="19.5"/>
			<rect x="565.4" y="116.2" class="st5" width="2.4" height="19.5"/>
			<rect x="569.5" y="116.2" class="st5" width="2.4" height="19.5"/>
			<rect x="573.7" y="116.2" class="st5" width="2.4" height="19.5"/>
			<rect x="577.9" y="116.2" class="st5" width="2.4" height="19.5"/>
			<rect x="582.1" y="116.2" class="st5" width="2.4" height="19.5"/>
			<rect x="586.2" y="116.2" class="st5" width="2.4" height="19.5"/>
			<g>
				<circle class="st5" cx="615.4" cy="125.9" r="1.9"/>
				<circle class="st5" cx="621.2" cy="125.9" r="1.9"/>
				<circle class="st5" cx="626.9" cy="125.9" r="1.9"/>
				<circle class="st5" cx="632.6" cy="125.9" r="1.9"/>
				<circle class="st5" cx="638.4" cy="125.9" r="1.9"/>
			</g>
		</g>
		<g>
			<rect x="557.4" y="141.5" class="st2" width="88.9" height="24.7"/>
			<rect x="561.2" y="144.1" class="st5" width="2.4" height="19.5"/>
			<rect x="565.4" y="144.1" class="st5" width="2.4" height="19.5"/>
			<rect x="569.5" y="144.1" class="st5" width="2.4" height="19.5"/>
			<rect x="573.7" y="144.1" class="st5" width="2.4" height="19.5"/>
			<rect x="577.9" y="144.1" class="st5" width="2.4" height="19.5"/>
			<rect x="582.1" y="144.1" class="st5" width="2.4" height="19.5"/>
			<rect x="586.2" y="144.1" class="st5" width="2.4" height="19.5"/>
			<g>
				<circle class="st5" cx="615.4" cy="153.8" r="1.9"/>
				<circle class="st5" cx="621.2" cy="153.8" r="1.9"/>
				<circle class="st5" cx="626.9" cy="153.8" r="1.9"/>
				<circle class="st5" cx="632.6" cy="153.8" r="1.9"/>
				<circle class="st5" cx="638.4" cy="153.8" r="1.9"/>
			</g>
		</g>
		<g>
			<rect x="557.4" y="169.2" class="st2" width="88.9" height="24.7"/>
			<rect x="561.2" y="171.8" class="st5" width="2.4" height="19.5"/>
			<rect x="565.4" y="171.8" class="st5" width="2.4" height="19.5"/>
			<rect x="569.5" y="171.8" class="st5" width="2.4" height="19.5"/>
			<rect x="573.7" y="171.8" class="st5" width="2.4" height="19.5"/>
			<rect x="577.9" y="171.8" class="st5" width="2.4" height="19.5"/>
			<rect x="582.1" y="171.8" class="st5" width="2.4" height="19.5"/>
			<rect x="586.2" y="171.8" class="st5" width="2.4" height="19.5"/>
			<g>
				<circle class="st5" cx="615.4" cy="181.5" r="1.9"/>
				<circle class="st5" cx="621.2" cy="181.5" r="1.9"/>
				<circle class="st5" cx="626.9" cy="181.5" r="1.9"/>
				<circle class="st5" cx="632.6" cy="181.5" r="1.9"/>
				<circle class="st5" cx="638.4" cy="181.5" r="1.9"/>
			</g>
		</g>
	</g>
	<g>
		<path class="st2" d="M638.9,546.5H509.7c-5.9,0-10.8-4.9-10.8-10.8v-97.1c0-5.9,4.9-10.8,10.8-10.8h129.1
			c5.9,0,10.8,4.9,10.8,10.8v97.1C649.7,541.7,644.8,546.5,638.9,546.5z"/>
		<path class="st1" d="M508.1,451v76.9c0,5.9,4.9,10.8,10.8,10.8h110.8c5.9,0,10.8-4.9,10.8-10.8V451H508.1z"/>
		<g>
			<rect x="612.2" y="437" class="st6" width="6.8" height="6.8"/>
			<rect x="623" y="437" class="st6" width="6.8" height="6.8"/>
			<rect x="633.7" y="437" class="st6" width="6.8" height="6.8"/>
		</g>
		<g>
			<path class="st7" d="M540.2,480.6c0.3,0.1,0.5,0.1,0.8,0.1c2.2,0.3,4.2,1.2,5.8,2.6c0.2,0.2,0.3,0.3,0.5,0.5
				c0.1,0.1,0.1,0.1,0,0.2c-0.7,0.7-1.4,1.4-2.1,2.1c-0.1,0.1-0.1,0.1-0.2,0c-0.5-0.4-1-0.8-1.6-1.2c-1.1-0.6-2.2-0.9-3.5-1
				c-1.2-0.1-2.5,0.1-3.6,0.5c-2,0.8-3.5,2.1-4.6,4c-0.6,1.1-1,2.4-1,3.7c-0.1,2.8,0.8,5.1,2.9,7c1.3,1.2,2.9,1.9,4.7,2.1
				c1.5,0.1,3.1,0,4.5-0.6c2.2-1,3.7-2.7,4.1-5.1c0-0.1,0-0.3,0.1-0.4c0-0.1,0-0.2-0.2-0.2c0,0-0.1,0-0.1,0c-2.4,0-4.9,0-7.3,0
				c-0.2,0-0.2,0-0.2-0.2c0-1,0-1.9,0-2.9c0-0.1,0-0.2,0.2-0.2c3.6,0,7.1,0,10.7,0c0.1,0,0.2,0.1,0.2,0.2c0.2,1.1,0.2,2.3,0.1,3.4
				c-0.1,1.2-0.5,2.4-1,3.5c-0.6,1.2-1.4,2.3-2.4,3.1c-1.4,1.3-3.1,2.1-4.9,2.5c-1.4,0.3-2.9,0.3-4.3,0.2c-1.8-0.2-3.4-0.8-4.9-1.8
				c-1.9-1.2-3.3-2.8-4.3-4.7c-0.7-1.3-1.1-2.6-1.2-4.1c0-0.2,0-0.3-0.1-0.5c0-0.5,0-1.1,0-1.6c0.1,0,0-0.1,0-0.1
				c0.1-0.8,0.2-1.7,0.5-2.5c0.7-2.2,1.9-4,3.7-5.5c1.8-1.5,3.8-2.5,6.1-2.8c0.4-0.1,0.7-0.1,1.1-0.1
				C539.2,480.6,539.7,480.6,540.2,480.6z"/>
			<path class="st7" d="M591.7,511.3c-0.3-0.1-0.5-0.1-0.8-0.1c-2.4-0.5-4.1-2-5.2-4.2c0-0.1-0.1-0.1,0.1-0.2
				c0.9-0.4,1.8-0.8,2.7-1.2c0.1-0.1,0.1,0,0.2,0.1c0.4,0.9,1,1.6,1.9,2.1c0.7,0.4,1.5,0.5,2.3,0.5c0.6,0,1.1-0.2,1.6-0.4
				c1-0.5,1.5-1.3,1.8-2.3c0.3-0.9,0.2-1.9,0.2-2.8c-0.3,0.2-0.5,0.5-0.8,0.7c-0.8,0.6-1.7,0.9-2.7,1c-3.1,0.4-6.4-1.8-7.5-4.9
				c-1-2.7-0.6-5.3,1.2-7.6c1.3-1.7,3.1-2.7,5.3-2.8c1.4-0.1,2.7,0.3,3.8,1.2c0.2,0.2,0.4,0.4,0.7,0.6c0-0.4,0-0.8,0-1.1
				c0-0.1,0-0.2,0.2-0.2c0.9,0,1.9,0,2.8,0c0.2,0,0.2,0,0.2,0.2c0,4.6,0,9.1,0,13.7c0,1.4-0.2,2.8-0.8,4.1c-0.7,1.6-1.9,2.7-3.5,3.3
				c-0.6,0.2-1.3,0.4-2,0.5c0,0-0.1,0-0.1,0C592.7,511.3,592.2,511.3,591.7,511.3z M588.4,496.8c0,0.2,0,0.4,0,0.6
				c0.2,1.6,1,2.8,2.4,3.6c1.9,1,4.3,0.2,5.3-1.7c0.6-1.1,0.8-2.3,0.5-3.5c-0.2-0.9-0.5-1.8-1.2-2.4c-1.5-1.6-4-1.7-5.6-0.2
				C588.9,494.2,588.4,495.4,588.4,496.8z"/>
			<path class="st8" d="M621.3,494.9c-0.4,0.1-0.8,0.3-1.3,0.5c-2.9,1.2-5.9,2.4-8.8,3.6c-0.2,0.1-0.2,0.1-0.1,0.3
				c0.4,0.6,0.8,1.2,1.5,1.6c0.9,0.5,1.9,0.7,3,0.5c1.1-0.2,1.9-0.8,2.6-1.6c0.1-0.1,0.2-0.3,0.3-0.4c0.1,0,0.3,0.2,0.4,0.2
				c0.7,0.4,1.4,0.9,2,1.3c0.1,0.1,0.1,0.1,0,0.2c-1.3,1.8-3.1,2.9-5.3,3.2c-2.3,0.3-4.4-0.3-6.2-1.9c-1.4-1.2-2.1-2.8-2.4-4.7
				c-0.2-2,0.1-3.8,1.2-5.5c1.1-1.7,2.7-2.8,4.8-3.1c1.5-0.3,2.9-0.1,4.3,0.7c1,0.5,1.8,1.3,2.4,2.2c0.6,0.8,1,1.6,1.3,2.6
				C621.2,494.7,621.2,494.7,621.3,494.9C621.3,494.8,621.3,494.8,621.3,494.9z M610.5,496.5C610.5,496.5,610.6,496.5,610.5,496.5
				c2.3-0.9,4.5-1.9,6.7-2.8c0.1,0,0.1-0.1,0.1-0.2c-0.1-0.2-0.2-0.3-0.3-0.5c-0.9-0.9-2-1.2-3.2-0.9c-1.5,0.3-2.5,1.2-3,2.6
				C610.6,495.3,610.5,495.9,610.5,496.5z"/>
			<path class="st8" d="M559.4,504.4c-4.3,0-7.7-3.2-7.7-7.6c-0.1-4.7,3.6-7.8,7.7-7.8c4.2,0,7.7,3.1,7.7,7.6
				C567,501.1,563.6,504.4,559.4,504.4z M555,496.5c0,1,0.1,1.7,0.4,2.3c0.7,1.6,2,2.4,3.7,2.6c1.5,0.1,2.7-0.5,3.6-1.7
				c0.9-1.2,1.1-2.5,0.8-4c-0.3-1.4-1-2.5-2.3-3.1c-1.6-0.8-3.5-0.5-4.8,0.7C555.4,494.2,555,495.4,555,496.5z"/>
			<path class="st9" d="M576,504.4c-4.3,0-7.6-3.4-7.6-7.6c0-4.6,3.6-7.7,7.7-7.7c4.2,0,7.7,3.2,7.7,7.8
				C583.7,501.1,580.3,504.4,576,504.4z M575.6,492.1c-0.9,0-2.1,0.6-2.9,1.6c-1,1.2-1.2,2.6-0.9,4.1c0.5,2.3,2.5,3.7,4.6,3.5
				c1.4-0.2,2.5-0.9,3.2-2.1c0.8-1.4,0.9-2.9,0.3-4.4C579.4,493.2,577.8,492.1,575.6,492.1z"/>
			<path class="st10" d="M602.1,492.7c0-3.7,0-7.4,0-11.1c0-0.2,0-0.2,0.2-0.2c1,0,2,0,2.9,0c0.2,0,0.2,0.1,0.2,0.3c0,7,0,14,0,21
				c0,0.4,0,0.7,0,1.1c0,0.1,0,0.2-0.2,0.2c-1,0-2,0-3,0c-0.2,0-0.2,0-0.2-0.2C602.1,500,602.1,496.4,602.1,492.7z"/>
		</g>
	</g>
	<g>
		<g>
			<polyline class="st11" points="185.3,425.6 185,494.3 297.2,494.3 			"/>
			<g>
				<polygon class="st1" points="290.2,503.6 294.1,494.3 290.2,485 312.1,494.3 				"/>
			</g>
		</g>
	</g>
	<g>
		<circle class="st1" cx="185" cy="435.1" r="17.6"/>
		<g>
			<path class="st2" d="M178.8,439.6c0.7,0.4,2.4,1.1,4.1,1.1c2.1,0,3.2-1,3.2-2.3c0-1.7-1.7-2.5-3.5-2.5h-1.7v-2.9h1.6
				c1.4,0,3.1-0.5,3.1-2c0-1.1-0.9-1.8-2.6-1.8c-1.4,0-2.9,0.6-3.7,1.1l-0.8-3c1.1-0.7,3.2-1.3,5.4-1.3c3.8,0,5.8,2,5.8,4.4
				c0,1.9-1.1,3.3-3.2,4.1v0.1c2.1,0.4,3.8,2,3.8,4.3c0,3.1-2.7,5.4-7.2,5.4c-2.3,0-4.2-0.6-5.2-1.2L178.8,439.6z"/>
		</g>
	</g>
	<g>
		<g>
			<polyline class="st11" points="185.3,193.2 185,157.9 331,157.9 			"/>
			<g>
				<polygon class="st1" points="324,167.2 327.9,157.9 324,148.7 345.9,157.9 				"/>
			</g>
		</g>
	</g>
	<g>
		<g>
			<line class="st11" x1="427.5" y1="157.9" x2="536.8" y2="157.9"/>
			<g>
				<polygon class="st1" points="529.8,167.2 533.7,157.9 529.8,148.7 551.8,157.9 				"/>
			</g>
		</g>
	</g>
	<g>
		<g>
			<polyline class="st11" points="605.2,257.8 605.7,325.7 417.7,325.7 			"/>
			<g>
				<polygon class="st1" points="424.7,316.5 420.8,325.7 424.7,335 402.7,325.7 				"/>
			</g>
		</g>
	</g>
	<g>
		<g>
			<polyline class="st11" points="384.8,202 385.3,326 329.6,326 			"/>
			<g>
				<polygon class="st1" points="336.6,316.7 332.6,326 336.6,335.2 314.6,326 				"/>
			</g>
		</g>
	</g>
	<g>
		<circle class="st1" cx="185" cy="220" r="17.6"/>
		<g>
			<path class="st2" d="M183.3,214.7L183.3,214.7l-3.4,1.6l-0.7-3.1l4.6-2.2h3.4v17.5h-4V214.7z"/>
		</g>
	</g>
	<g>
		<circle class="st1" cx="605.5" cy="231.7" r="17.6"/>
		<g>
			<path class="st2" d="M598.6,240.3v-2.5l2.3-2.1c3.8-3.4,5.7-5.4,5.7-7.5c0-1.4-0.9-2.6-2.9-2.6c-1.5,0-2.8,0.8-3.8,1.5l-1.2-2.9
				c1.3-1,3.4-1.8,5.7-1.8c4,0,6.2,2.3,6.2,5.5c0,2.9-2.1,5.3-4.7,7.6l-1.6,1.3v0.1h6.6v3.4H598.6z"/>
		</g>
	</g>
	<g>
		<path class="st5" d="M160.1,286.4l-2.1-8.1h1.1l1,4.1c0.2,1,0.5,2,0.6,2.8h0c0.1-0.8,0.4-1.8,0.7-2.8l1.1-4.1h1.1l1,4.1
			c0.2,1,0.4,1.9,0.6,2.8h0c0.2-0.9,0.4-1.8,0.6-2.8l1.1-4.1h1.1l-2.3,8.1h-1.1l-1-4.2c-0.3-1-0.4-1.8-0.5-2.6h0
			c-0.1,0.8-0.3,1.6-0.6,2.6l-1.2,4.2H160.1z"/>
		<path class="st5" d="M173.1,282.7H170v2.9h3.5v0.9H169v-8.1h4.4v0.9H170v2.6h3.1V282.7z"/>
		<path class="st5" d="M174.9,278.5c0.5-0.1,1.2-0.2,1.9-0.2c1,0,1.7,0.2,2.2,0.6c0.4,0.3,0.7,0.8,0.7,1.4c0,0.8-0.5,1.5-1.4,1.8v0
			c0.8,0.2,1.7,0.8,1.7,2c0,0.7-0.3,1.2-0.7,1.6c-0.6,0.5-1.5,0.8-2.8,0.8c-0.7,0-1.3,0-1.6-0.1V278.5z M175.9,281.8h0.9
			c1.1,0,1.8-0.6,1.8-1.4c0-0.9-0.7-1.3-1.8-1.3c-0.5,0-0.8,0-0.9,0.1V281.8z M175.9,285.6c0.2,0,0.5,0,0.9,0c1.1,0,2.1-0.4,2.1-1.6
			c0-1.1-0.9-1.6-2.1-1.6h-0.9V285.6z"/>
		<path class="st5" d="M183.9,278.5c0.5-0.1,1.2-0.2,1.9-0.2c1,0,1.7,0.2,2.2,0.6c0.4,0.3,0.7,0.8,0.7,1.4c0,0.8-0.5,1.5-1.4,1.8v0
			c0.8,0.2,1.7,0.8,1.7,2c0,0.7-0.3,1.2-0.7,1.6c-0.6,0.5-1.5,0.8-2.8,0.8c-0.7,0-1.3,0-1.6-0.1V278.5z M185,281.8h0.9
			c1.1,0,1.8-0.6,1.8-1.4c0-0.9-0.7-1.3-1.8-1.3c-0.5,0-0.8,0-0.9,0.1V281.8z M185,285.6c0.2,0,0.5,0,0.9,0c1.1,0,2.1-0.4,2.1-1.6
			c0-1.1-0.9-1.6-2.1-1.6H185V285.6z"/>
		<path class="st5" d="M190.4,278.5c0.5-0.1,1.3-0.2,2-0.2c1.1,0,1.8,0.2,2.3,0.7c0.4,0.4,0.6,0.9,0.6,1.5c0,1.1-0.7,1.8-1.5,2.1v0
			c0.6,0.2,1,0.8,1.2,1.6c0.3,1.1,0.5,1.9,0.6,2.2h-1.1c-0.1-0.2-0.3-0.9-0.5-1.9c-0.2-1.1-0.7-1.5-1.6-1.6h-1v3.5h-1V278.5z
			 M191.5,282.1h1.1c1.1,0,1.8-0.6,1.8-1.5c0-1-0.8-1.5-1.9-1.5c-0.5,0-0.9,0-1,0.1V282.1z"/>
		<path class="st5" d="M203.8,282.3c0,2.8-1.7,4.3-3.8,4.3c-2.1,0-3.6-1.7-3.6-4.1c0-2.6,1.6-4.2,3.8-4.2
			C202.4,278.2,203.8,279.9,203.8,282.3z M197.5,282.4c0,1.7,0.9,3.3,2.6,3.3c1.7,0,2.6-1.5,2.6-3.4c0-1.6-0.8-3.3-2.6-3.3
			C198.4,279.1,197.5,280.7,197.5,282.4z"/>
		<path class="st5" d="M206.5,286.4l-2.1-8.1h1.1l1,4.1c0.2,1,0.5,2,0.6,2.8h0c0.1-0.8,0.4-1.8,0.7-2.8l1.1-4.1h1.1l1,4.1
			c0.2,1,0.4,1.9,0.6,2.8h0c0.2-0.9,0.4-1.8,0.6-2.8l1.1-4.1h1.1l-2.3,8.1h-1.1l-1-4.2c-0.3-1-0.4-1.8-0.5-2.6h0
			c-0.1,0.8-0.3,1.6-0.6,2.6l-1.2,4.2H206.5z"/>
		<path class="st5" d="M215.2,285.2c0.5,0.3,1.2,0.5,1.9,0.5c1.1,0,1.7-0.6,1.7-1.4c0-0.8-0.4-1.2-1.5-1.6c-1.3-0.5-2.1-1.2-2.1-2.3
			c0-1.3,1-2.2,2.6-2.2c0.8,0,1.4,0.2,1.8,0.4l-0.3,0.9c-0.3-0.1-0.8-0.4-1.5-0.4c-1.1,0-1.5,0.7-1.5,1.2c0,0.8,0.5,1.1,1.6,1.6
			c1.4,0.5,2.1,1.2,2.1,2.4c0,1.2-0.9,2.3-2.8,2.3c-0.8,0-1.6-0.2-2.1-0.5L215.2,285.2z"/>
		<path class="st5" d="M225.4,282.7h-3.1v2.9h3.5v0.9h-4.5v-8.1h4.4v0.9h-3.3v2.6h3.1V282.7z"/>
		<path class="st5" d="M227.1,278.5c0.5-0.1,1.3-0.2,2-0.2c1.1,0,1.8,0.2,2.3,0.7c0.4,0.4,0.6,0.9,0.6,1.5c0,1.1-0.7,1.8-1.5,2.1v0
			c0.6,0.2,1,0.8,1.2,1.6c0.3,1.1,0.5,1.9,0.6,2.2h-1.1c-0.1-0.2-0.3-0.9-0.5-1.9c-0.2-1.1-0.7-1.5-1.6-1.6h-1v3.5h-1V278.5z
			 M228.2,282.1h1.1c1.1,0,1.8-0.6,1.8-1.5c0-1-0.8-1.5-1.9-1.5c-0.5,0-0.9,0-1,0.1V282.1z"/>
	</g>
	<g>
		<g>
			<path class="st1" d="M389.7,114.4h-29.5c-3.2,0-5.8,2.6-5.8,5.8v64.9c0,3.2,2.6,5.8,5.8,5.8h50.5c3.2,0,5.8-2.6,5.8-5.8v-44
				L389.7,114.4z"/>
			<path class="st6" d="M389.7,135.4v-21l26.7,26.7h-21C392.3,141.1,389.7,138.5,389.7,135.4z"/>
		</g>
		<g>
			<path class="st2" d="M370.5,157.9v3h2.9v-3h1.8v7.8h-1.8v-3.2h-2.9v3.2h-1.8v-7.8H370.5z"/>
			<path class="st2" d="M383.8,161.7c0,2.5-1.5,4.1-3.8,4.1c-2.3,0-3.7-1.7-3.7-4c0-2.3,1.5-4.1,3.8-4.1
				C382.5,157.8,383.8,159.6,383.8,161.7z M378.2,161.8c0,1.5,0.7,2.6,1.9,2.6c1.2,0,1.9-1.1,1.9-2.6c0-1.4-0.7-2.6-1.9-2.6
				C378.9,159.2,378.2,160.3,378.2,161.8z"/>
			<path class="st2" d="M385,163.9c0.5,0.2,1.2,0.5,1.9,0.5c0.8,0,1.2-0.3,1.2-0.8c0-0.5-0.4-0.8-1.3-1.1c-1.3-0.4-2.1-1.2-2.1-2.3
				c0-1.3,1.1-2.3,2.9-2.3c0.9,0,1.5,0.2,2,0.4l-0.4,1.4c-0.3-0.1-0.9-0.4-1.6-0.4c-0.8,0-1.1,0.3-1.1,0.7c0,0.5,0.4,0.7,1.4,1.1
				c1.4,0.5,2,1.2,2,2.3c0,1.3-1,2.4-3.1,2.4c-0.9,0-1.8-0.2-2.2-0.5L385,163.9z"/>
			<path class="st2" d="M392.7,159.4h-2.1v-1.5h6v1.5h-2.1v6.3h-1.8V159.4z"/>
			<path class="st2" d="M397.5,163.9c0.5,0.2,1.2,0.5,1.9,0.5c0.8,0,1.2-0.3,1.2-0.8c0-0.5-0.4-0.8-1.3-1.1
				c-1.3-0.4-2.1-1.2-2.1-2.3c0-1.3,1.1-2.3,2.9-2.3c0.9,0,1.5,0.2,2,0.4l-0.4,1.4c-0.3-0.1-0.9-0.4-1.6-0.4c-0.8,0-1.1,0.3-1.1,0.7
				c0,0.5,0.4,0.7,1.4,1.1c1.4,0.5,2,1.2,2,2.3c0,1.3-1,2.4-3.1,2.4c-0.9,0-1.8-0.2-2.2-0.5L397.5,163.9z"/>
			<path class="st2" d="M375.5,169.9h4.7v1.4h-3v1.8h2.8v1.4h-2.8v3.1h-1.8V169.9z"/>
			<path class="st2" d="M383.3,169.9v7.8h-1.8v-7.8H383.3z"/>
			<path class="st2" d="M384.8,169.9h1.8v6.3h3.1v1.5h-4.9V169.9z"/>
			<path class="st2" d="M395.4,174.4h-2.9v1.8h3.2v1.4h-5v-7.8h4.8v1.4h-3v1.6h2.9V174.4z"/>
		</g>
	</g>
	<path class="st1" d="M651.8,113.6c0.1-0.7,0.2-1.4,0.2-2.2c0-7.9-6.5-14.4-14.6-14.4c-5.2,0-9.8,2.7-12.4,6.8
		c-1.4-0.7-3.1-1.1-4.8-1.1c-5.9,0-10.7,4.7-10.7,10.5c0,0.1,0,0.2,0,0.3c-4.1,1-7.1,4.7-7.1,9v0c0,5.1,4.2,9.2,9.4,9.2H649
		c5.2,0,9.4-4.2,9.4-9.2v0C658.4,118.3,655.6,114.8,651.8,113.6z"/>
	<rect x="338" y="231.7" class="st0" width="82.5" height="31.3"/>
	<g>
		<path class="st1" d="M363.3,243.6c0.5,0.3,1.2,0.5,1.9,0.5c1.1,0,1.7-0.6,1.7-1.4c0-0.8-0.4-1.2-1.5-1.6c-1.3-0.5-2.1-1.2-2.1-2.3
			c0-1.3,1-2.2,2.6-2.2c0.8,0,1.4,0.2,1.8,0.4l-0.3,0.9c-0.3-0.1-0.8-0.4-1.5-0.4c-1.1,0-1.5,0.7-1.5,1.2c0,0.8,0.5,1.1,1.6,1.6
			c1.4,0.5,2.1,1.2,2.1,2.4c0,1.2-0.9,2.3-2.8,2.3c-0.8,0-1.6-0.2-2.1-0.5L363.3,243.6z"/>
		<path class="st1" d="M374.1,243.3c0,0.6,0,1.1,0,1.6h-0.9l-0.1-0.9h0c-0.3,0.5-0.9,1.1-1.9,1.1c-0.9,0-2-0.5-2-2.5v-3.4h1.1v3.2
			c0,1.1,0.3,1.8,1.3,1.8c0.7,0,1.2-0.5,1.4-1c0.1-0.2,0.1-0.3,0.1-0.5v-3.6h1.1V243.3z"/>
		<path class="st1" d="M375.9,240.9c0-0.7,0-1.3,0-1.8h0.9l0,1.1h0c0.3-0.8,0.9-1.3,1.6-1.3c0.1,0,0.2,0,0.3,0v1c-0.1,0-0.2,0-0.4,0
			c-0.7,0-1.3,0.6-1.4,1.4c0,0.1,0,0.3,0,0.5v3.1h-1V240.9z"/>
		<path class="st1" d="M380.3,242.2c0,1.4,0.9,2,2,2c0.8,0,1.2-0.1,1.6-0.3l0.2,0.8c-0.4,0.2-1,0.4-1.9,0.4c-1.8,0-2.9-1.2-2.9-2.9
			c0-1.8,1-3.1,2.7-3.1c1.9,0,2.4,1.7,2.4,2.7c0,0.2,0,0.4,0,0.5H380.3z M383.4,241.4c0-0.7-0.3-1.7-1.5-1.7c-1.1,0-1.5,1-1.6,1.7
			H383.4z"/>
		<path class="st1" d="M393.3,236.4v7c0,0.5,0,1.1,0,1.5h-0.9l0-1h0c-0.3,0.6-1,1.1-2,1.1c-1.4,0-2.5-1.2-2.5-3
			c0-1.9,1.2-3.1,2.6-3.1c0.9,0,1.5,0.4,1.8,0.9h0v-3.5H393.3z M392.2,241.4c0-0.1,0-0.3,0-0.4c-0.2-0.7-0.7-1.2-1.5-1.2
			c-1.1,0-1.7,1-1.7,2.2c0,1.2,0.6,2.1,1.7,2.1c0.7,0,1.4-0.5,1.5-1.3c0-0.1,0-0.3,0-0.5V241.4z"/>
		<path class="st1" d="M400.3,241.9c0,2.1-1.5,3.1-2.9,3.1c-1.6,0-2.8-1.2-2.8-3c0-1.9,1.3-3.1,2.9-3.1
			C399.1,238.9,400.3,240.1,400.3,241.9z M395.7,242c0,1.3,0.7,2.2,1.8,2.2c1,0,1.8-0.9,1.8-2.3c0-1-0.5-2.2-1.7-2.2
			S395.7,240.9,395.7,242z"/>
		<path class="st1" d="M400.6,246.3c0.3-0.7,0.6-2,0.7-2.9l1.2-0.1c-0.3,1-0.8,2.4-1.1,2.9L400.6,246.3z"/>
		<path class="st1" d="M363.4,250.8h1.1v8.5h-1.1V250.8z"/>
		<path class="st1" d="M371.4,256.3c0,2.1-1.5,3.1-2.9,3.1c-1.6,0-2.8-1.2-2.8-3c0-1.9,1.3-3.1,2.9-3.1
			C370.3,253.3,371.4,254.5,371.4,256.3z M366.8,256.4c0,1.3,0.7,2.2,1.8,2.2c1,0,1.8-0.9,1.8-2.3c0-1-0.5-2.2-1.7-2.2
			C367.4,254.1,366.8,255.3,366.8,256.4z"/>
		<path class="st1" d="M378,256.3c0,2.1-1.5,3.1-2.9,3.1c-1.6,0-2.8-1.2-2.8-3c0-1.9,1.3-3.1,2.9-3.1
			C376.9,253.3,378,254.5,378,256.3z M373.4,256.4c0,1.3,0.7,2.2,1.8,2.2c1,0,1.8-0.9,1.8-2.3c0-1-0.5-2.2-1.7-2.2
			C374,254.1,373.4,255.3,373.4,256.4z"/>
		<path class="st1" d="M380.4,256.1L380.4,256.1c0.2-0.2,0.4-0.5,0.5-0.7l1.7-2h1.3l-2.2,2.4l2.6,3.4H383l-2-2.8l-0.5,0.6v2.2h-1
			v-8.5h1V256.1z"/>
		<path class="st1" d="M387.5,255c0-0.6,0-1.1,0-1.6h0.9l0.1,1h0c0.3-0.6,1-1.1,1.9-1.1c0.8,0,2.1,0.5,2.1,2.5v3.5h-1.1v-3.3
			c0-0.9-0.3-1.7-1.3-1.7c-0.7,0-1.2,0.5-1.4,1.1c0,0.1-0.1,0.3-0.1,0.5v3.5h-1.1V255z"/>
		<path class="st1" d="M399.5,256.3c0,2.1-1.5,3.1-2.9,3.1c-1.6,0-2.8-1.2-2.8-3c0-1.9,1.3-3.1,2.9-3.1
			C398.3,253.3,399.5,254.5,399.5,256.3z M394.8,256.4c0,1.3,0.7,2.2,1.8,2.2c1,0,1.8-0.9,1.8-2.3c0-1-0.5-2.2-1.7-2.2
			S394.8,255.3,394.8,256.4z"/>
		<path class="st1" d="M403.4,259.3v-5h-0.8v-0.8h0.8v-0.3c0-0.8,0.2-1.6,0.7-2c0.4-0.4,0.9-0.5,1.4-0.5c0.4,0,0.7,0.1,0.9,0.2
			l-0.1,0.8c-0.2-0.1-0.4-0.1-0.7-0.1c-0.9,0-1.1,0.8-1.1,1.7v0.3h1.4v0.8h-1.4v5H403.4z"/>
		<path class="st1" d="M411.7,257.7c0,0.6,0,1.1,0,1.6h-0.9l-0.1-0.9h0c-0.3,0.5-0.9,1.1-1.9,1.1c-0.9,0-2-0.5-2-2.5v-3.4h1.1v3.2
			c0,1.1,0.3,1.8,1.3,1.8c0.7,0,1.2-0.5,1.4-1c0.1-0.2,0.1-0.3,0.1-0.5v-3.6h1.1V257.7z"/>
		<path class="st1" d="M413.4,255.3c0-0.7,0-1.3,0-1.8h0.9l0,1.1h0c0.3-0.8,0.9-1.3,1.6-1.3c0.1,0,0.2,0,0.3,0v1c-0.1,0-0.2,0-0.4,0
			c-0.7,0-1.3,0.6-1.4,1.4c0,0.1,0,0.3,0,0.5v3.1h-1V255.3z"/>
		<path class="st1" d="M418.9,252.1v1.4h1.5v0.8h-1.5v3.1c0,0.7,0.2,1.1,0.8,1.1c0.3,0,0.5,0,0.6-0.1l0,0.8
			c-0.2,0.1-0.5,0.2-0.9,0.2c-0.5,0-0.9-0.2-1.1-0.5c-0.3-0.3-0.4-0.8-0.4-1.5v-3.2H417v-0.8h0.9v-1.1L418.9,252.1z"/>
		<path class="st1" d="M421.6,250.8h1.1v3.6h0c0.2-0.3,0.4-0.6,0.8-0.7c0.3-0.2,0.7-0.3,1.1-0.3c0.8,0,2,0.5,2,2.5v3.5h-1.1v-3.3
			c0-0.9-0.3-1.7-1.3-1.7c-0.7,0-1.2,0.5-1.4,1.1c-0.1,0.1-0.1,0.3-0.1,0.5v3.5h-1.1V250.8z"/>
		<path class="st1" d="M428.9,256.6c0,1.4,0.9,2,2,2c0.8,0,1.2-0.1,1.6-0.3l0.2,0.8c-0.4,0.2-1,0.4-1.9,0.4c-1.8,0-2.9-1.2-2.9-2.9
			c0-1.8,1-3.1,2.7-3.1c1.9,0,2.4,1.7,2.4,2.7c0,0.2,0,0.4,0,0.5H428.9z M432,255.8c0-0.7-0.3-1.7-1.5-1.7c-1.1,0-1.5,1-1.6,1.7H432
			z"/>
		<path class="st1" d="M434.3,255.3c0-0.7,0-1.3,0-1.8h0.9l0,1.1h0c0.3-0.8,0.9-1.3,1.6-1.3c0.1,0,0.2,0,0.3,0v1c-0.1,0-0.2,0-0.4,0
			c-0.7,0-1.3,0.6-1.4,1.4c0,0.1,0,0.3,0,0.5v3.1h-1V255.3z"/>
		<path class="st1" d="M438.7,259.4c-0.4,0-0.7-0.3-0.7-0.7c0-0.4,0.3-0.7,0.7-0.7c0.4,0,0.7,0.3,0.7,0.7
			C439.4,259.1,439.2,259.4,438.7,259.4L438.7,259.4z M438.3,256.9l-0.2-5.8h1.2l-0.2,5.8H438.3z"/>
	</g>
	<g>
		<path class="st1" d="M444.3,130.4c0.5,0.3,1.2,0.5,1.9,0.5c1.1,0,1.7-0.6,1.7-1.4c0-0.8-0.4-1.2-1.5-1.6c-1.3-0.5-2.1-1.2-2.1-2.3
			c0-1.3,1-2.2,2.6-2.2c0.8,0,1.4,0.2,1.8,0.4l-0.3,0.9c-0.3-0.1-0.8-0.4-1.5-0.4c-1.1,0-1.5,0.7-1.5,1.2c0,0.8,0.5,1.1,1.6,1.6
			c1.4,0.5,2.1,1.2,2.1,2.4c0,1.2-0.9,2.3-2.8,2.3c-0.8,0-1.6-0.2-2.1-0.5L444.3,130.4z"/>
		<path class="st1" d="M455.6,128.7c0,2.1-1.5,3.1-2.9,3.1c-1.6,0-2.8-1.2-2.8-3c0-1.9,1.3-3.1,2.9-3.1
			C454.5,125.7,455.6,126.9,455.6,128.7z M451,128.7c0,1.3,0.7,2.2,1.8,2.2c1,0,1.8-0.9,1.8-2.3c0-1-0.5-2.2-1.7-2.2
			S451,127.6,451,128.7z"/>
		<path class="st1" d="M456.9,127.6c0-0.7,0-1.3,0-1.8h0.9l0,1.1h0c0.3-0.8,0.9-1.3,1.6-1.3c0.1,0,0.2,0,0.3,0v1c-0.1,0-0.2,0-0.4,0
			c-0.7,0-1.3,0.6-1.4,1.4c0,0.1,0,0.3,0,0.5v3.1h-1V127.6z"/>
		<path class="st1" d="M460.9,127.6c0-0.7,0-1.3,0-1.8h0.9l0,1.1h0c0.3-0.8,0.9-1.3,1.6-1.3c0.1,0,0.2,0,0.3,0v1c-0.1,0-0.2,0-0.4,0
			c-0.7,0-1.3,0.6-1.4,1.4c0,0.1,0,0.3,0,0.5v3.1h-1V127.6z"/>
		<path class="st1" d="M465.5,125.8l1.3,3.4c0.1,0.4,0.3,0.8,0.4,1.2h0c0.1-0.3,0.2-0.8,0.4-1.2l1.2-3.4h1.1l-1.6,4.1
			c-0.8,2-1.3,3-2,3.6c-0.5,0.5-1,0.6-1.3,0.7l-0.3-0.9c0.3-0.1,0.6-0.3,0.9-0.5c0.3-0.2,0.6-0.6,0.9-1.2c0-0.1,0.1-0.2,0.1-0.3
			c0-0.1,0-0.1-0.1-0.3l-2.1-5.3H465.5z"/>
		<path class="st1" d="M478.3,123.1v7c0,0.5,0,1.1,0,1.5h-0.9l0-1h0c-0.3,0.6-1,1.1-2,1.1c-1.4,0-2.5-1.2-2.5-3
			c0-1.9,1.2-3.1,2.6-3.1c0.9,0,1.5,0.4,1.8,0.9h0v-3.5H478.3z M477.3,128.2c0-0.1,0-0.3,0-0.4c-0.2-0.7-0.7-1.2-1.5-1.2
			c-1.1,0-1.7,1-1.7,2.2c0,1.2,0.6,2.1,1.7,2.1c0.7,0,1.4-0.5,1.5-1.3c0-0.1,0-0.3,0-0.5V128.2z"/>
		<path class="st1" d="M485,130.1c0,0.6,0,1.1,0,1.6h-0.9l-0.1-0.9h0c-0.3,0.5-0.9,1.1-1.9,1.1c-0.9,0-2-0.5-2-2.5v-3.4h1.1v3.2
			c0,1.1,0.3,1.8,1.3,1.8c0.7,0,1.2-0.5,1.4-1c0.1-0.2,0.1-0.3,0.1-0.5v-3.6h1.1V130.1z"/>
		<path class="st1" d="M491.7,123.1v7c0,0.5,0,1.1,0,1.5h-0.9l0-1h0c-0.3,0.6-1,1.1-2,1.1c-1.4,0-2.5-1.2-2.5-3
			c0-1.9,1.2-3.1,2.6-3.1c0.9,0,1.5,0.4,1.8,0.9h0v-3.5H491.7z M490.7,128.2c0-0.1,0-0.3,0-0.4c-0.2-0.7-0.7-1.2-1.5-1.2
			c-1.1,0-1.7,1-1.7,2.2c0,1.2,0.6,2.1,1.7,2.1c0.7,0,1.4-0.5,1.5-1.3c0-0.1,0-0.3,0-0.5V128.2z"/>
		<path class="st1" d="M494.1,128.9c0,1.4,0.9,2,2,2c0.8,0,1.2-0.1,1.6-0.3l0.2,0.8c-0.4,0.2-1,0.4-1.9,0.4c-1.8,0-2.9-1.2-2.9-2.9
			c0-1.8,1-3.1,2.7-3.1c1.9,0,2.4,1.7,2.4,2.7c0,0.2,0,0.4,0,0.5H494.1z M497.2,128.2c0-0.7-0.3-1.7-1.5-1.7c-1.1,0-1.5,1-1.6,1.7
			H497.2z"/>
		<path class="st1" d="M498.7,133.1c0.3-0.7,0.6-2,0.7-2.9l1.2-0.1c-0.3,1-0.8,2.4-1.1,2.9L498.7,133.1z"/>
		<path class="st1" d="M445.4,142.9L445.4,142.9c0.2-0.2,0.4-0.5,0.5-0.7l1.7-2h1.3l-2.2,2.4l2.6,3.4h-1.3l-2-2.8l-0.5,0.6v2.2h-1
			v-8.5h1V142.9z"/>
		<path class="st1" d="M450.6,143.3c0,1.4,0.9,2,2,2c0.8,0,1.2-0.1,1.6-0.3l0.2,0.8c-0.4,0.2-1,0.4-1.9,0.4c-1.8,0-2.9-1.2-2.9-2.9
			s1-3.1,2.7-3.1c1.9,0,2.4,1.7,2.4,2.7c0,0.2,0,0.4,0,0.5H450.6z M453.7,142.6c0-0.7-0.3-1.7-1.5-1.7c-1.1,0-1.5,1-1.6,1.7H453.7z"
			/>
		<path class="st1" d="M456.6,143.3c0,1.4,0.9,2,2,2c0.8,0,1.2-0.1,1.6-0.3l0.2,0.8c-0.4,0.2-1,0.4-1.9,0.4c-1.8,0-2.9-1.2-2.9-2.9
			s1-3.1,2.7-3.1c1.9,0,2.4,1.7,2.4,2.7c0,0.2,0,0.4,0,0.5H456.6z M459.7,142.6c0-0.7-0.3-1.7-1.5-1.7c-1.1,0-1.5,1-1.6,1.7H459.7z"
			/>
		<path class="st1" d="M462,142.1c0-0.7,0-1.3,0-1.9h0.9l0,1h0c0.4-0.7,1.1-1.1,2.1-1.1c1.4,0,2.5,1.2,2.5,3c0,2.1-1.3,3.1-2.6,3.1
			c-0.8,0-1.4-0.3-1.8-0.9h0v3.2h-1V142.1z M463.1,143.7c0,0.2,0,0.3,0,0.4c0.2,0.7,0.8,1.2,1.6,1.2c1.1,0,1.8-0.9,1.8-2.2
			c0-1.2-0.6-2.2-1.7-2.2c-0.7,0-1.4,0.5-1.6,1.3c0,0.1-0.1,0.3-0.1,0.4V143.7z"/>
		<path class="st1" d="M471.4,137.5h1.1v8.5h-1.1V137.5z"/>
		<path class="st1" d="M479.5,143.1c0,2.1-1.5,3.1-2.9,3.1c-1.6,0-2.8-1.2-2.8-3c0-1.9,1.3-3.1,2.9-3.1
			C478.3,140.1,479.5,141.3,479.5,143.1z M474.9,143.1c0,1.3,0.7,2.2,1.8,2.2c1,0,1.8-0.9,1.8-2.3c0-1-0.5-2.2-1.7-2.2
			C475.4,140.9,474.9,142,474.9,143.1z"/>
		<path class="st1" d="M486.1,143.1c0,2.1-1.5,3.1-2.9,3.1c-1.6,0-2.8-1.2-2.8-3c0-1.9,1.3-3.1,2.9-3.1
			C484.9,140.1,486.1,141.3,486.1,143.1z M481.5,143.1c0,1.3,0.7,2.2,1.8,2.2c1,0,1.8-0.9,1.8-2.3c0-1-0.5-2.2-1.7-2.2
			C482,140.9,481.5,142,481.5,143.1z"/>
		<path class="st1" d="M488.4,142.9L488.4,142.9c0.2-0.2,0.4-0.5,0.5-0.7l1.7-2h1.3l-2.2,2.4l2.6,3.4H491l-2-2.8l-0.5,0.6v2.2h-1
			v-8.5h1V142.9z"/>
		<path class="st1" d="M494.4,138.6c0,0.4-0.3,0.6-0.7,0.6c-0.4,0-0.6-0.3-0.6-0.6c0-0.4,0.3-0.7,0.7-0.7
			C494.1,137.9,494.4,138.2,494.4,138.6z M493.2,146v-5.8h1.1v5.8H493.2z"/>
		<path class="st1" d="M496,141.8c0-0.6,0-1.1,0-1.6h0.9l0.1,1h0c0.3-0.6,1-1.1,1.9-1.1c0.8,0,2.1,0.5,2.1,2.5v3.5h-1.1v-3.3
			c0-0.9-0.3-1.7-1.3-1.7c-0.7,0-1.2,0.5-1.4,1.1c0,0.1-0.1,0.3-0.1,0.5v3.5H496V141.8z"/>
		<path class="st1" d="M507.6,145.2c0,1.3-0.3,2.1-0.8,2.7c-0.6,0.5-1.4,0.7-2.1,0.7c-0.7,0-1.5-0.2-1.9-0.5l0.3-0.8
			c0.4,0.2,1,0.5,1.7,0.5c1.1,0,1.9-0.6,1.9-2V145h0c-0.3,0.5-0.9,1-1.8,1c-1.4,0-2.5-1.2-2.5-2.8c0-2,1.3-3.1,2.6-3.1
			c1,0,1.6,0.5,1.8,1h0l0-0.9h0.9c0,0.4,0,0.9,0,1.6V145.2z M506.6,142.5c0-0.2,0-0.3-0.1-0.5c-0.2-0.6-0.7-1.1-1.5-1.1
			c-1,0-1.7,0.9-1.7,2.2c0,1.1,0.6,2.1,1.7,2.1c0.6,0,1.2-0.4,1.5-1.1c0.1-0.2,0.1-0.4,0.1-0.6V142.5z"/>
		<path class="st1" d="M509.7,146.2c-0.4,0-0.7-0.3-0.7-0.8c0-0.4,0.3-0.8,0.7-0.8s0.7,0.3,0.7,0.8
			C510.4,145.8,510.1,146.2,509.7,146.2L509.7,146.2z"/>
	</g>
</g>
</svg>
